<?xml version="1.0" encoding="utf-8"?>
<!-- Generator: Adobe Illustrator 16.0.0, SVG Export Plug-In . SVG Version: 6.00 Build 0)  -->
<!DOCTYPE svg PUBLIC "-//W3C//DTD SVG 1.1//EN" "http://www.w3.org/Graphics/SVG/1.1/DTD/svg11.dtd">
<svg version="1.1" id="Layer_1" xmlns="http://www.w3.org/2000/svg" xmlns:xlink="http://www.w3.org/1999/xlink" x="0px" y="0px"
	 width="857px" height="397px" viewBox="0 0 857 397" enable-background="new 0 0 857 397" xml:space="preserve">
<g>
	<g>
		<path fill="#4C81C2" d="M195.191,199.506h-1.05c-1.161,0-2.1-0.808-2.1-1.802c0-0.996,0.939-1.803,2.1-1.803h1.05
			c1.161,0,2.1,0.808,2.1,1.803C197.291,198.698,196.352,199.506,195.191,199.506z"/>
		<path fill="#4C81C2" d="M661.963,199.506h-2.102c-1.16,0-2.1-0.808-2.1-1.802c0-0.996,0.939-1.803,2.1-1.803h2.102
			c1.161,0,2.1,0.808,2.1,1.803C664.063,198.698,663.124,199.506,661.963,199.506z M649.35,199.506h-2.104
			c-1.16,0-2.1-0.808-2.1-1.802c0-0.996,0.939-1.803,2.1-1.803h2.104c1.16,0,2.1,0.808,2.1,1.803
			C651.449,198.698,650.51,199.506,649.35,199.506z M636.733,199.506h-2.102c-1.161,0-2.1-0.808-2.1-1.802
			c0-0.996,0.938-1.803,2.1-1.803h2.102c1.16,0,2.1,0.808,2.1,1.803C638.833,198.698,637.894,199.506,636.733,199.506z
			 M624.117,199.506h-2.102c-1.161,0-2.1-0.808-2.1-1.802c0-0.996,0.938-1.803,2.1-1.803h2.102c1.16,0,2.1,0.808,2.1,1.803
			C626.217,198.698,625.277,199.506,624.117,199.506z M611.503,199.506h-2.104c-1.161,0-2.1-0.808-2.1-1.802
			c0-0.996,0.938-1.803,2.1-1.803h2.104c1.16,0,2.1,0.808,2.1,1.803C613.603,198.698,612.663,199.506,611.503,199.506z
			 M598.887,199.506h-2.102c-1.16,0-2.1-0.808-2.1-1.802c0-0.996,0.939-1.803,2.1-1.803h2.102c1.16,0,2.1,0.808,2.1,1.803
			C600.986,198.698,600.047,199.506,598.887,199.506z M586.271,199.506h-2.102c-1.16,0-2.1-0.808-2.1-1.802
			c0-0.996,0.939-1.803,2.1-1.803h2.102c1.161,0,2.1,0.808,2.1,1.803C588.37,198.698,587.432,199.506,586.271,199.506z
			 M573.656,199.506h-2.104c-1.16,0-2.1-0.808-2.1-1.802c0-0.996,0.939-1.803,2.1-1.803h2.104c1.161,0,2.1,0.808,2.1,1.803
			C575.756,198.698,574.817,199.506,573.656,199.506z M561.04,199.506h-2.104c-1.16,0-2.1-0.808-2.1-1.802
			c0-0.996,0.939-1.803,2.1-1.803h2.104c1.161,0,2.1,0.808,2.1,1.803C563.14,198.698,562.201,199.506,561.04,199.506z
			 M548.424,199.506h-2.102c-1.16,0-2.1-0.808-2.1-1.802c0-0.996,0.939-1.803,2.1-1.803h2.102c1.161,0,2.1,0.808,2.1,1.803
			C550.523,198.698,549.585,199.506,548.424,199.506z M535.811,199.506h-2.104c-1.16,0-2.1-0.808-2.1-1.802
			c0-0.996,0.939-1.803,2.1-1.803h2.104c1.16,0,2.1,0.808,2.1,1.803C537.91,198.698,536.971,199.506,535.811,199.506z
			 M523.194,199.506h-2.104c-1.16,0-2.1-0.808-2.1-1.802c0-0.996,0.939-1.803,2.1-1.803h2.104c1.16,0,2.1,0.808,2.1,1.803
			C525.294,198.698,524.354,199.506,523.194,199.506z M510.578,199.506h-2.102c-1.161,0-2.1-0.808-2.1-1.802
			c0-0.996,0.938-1.803,2.1-1.803h2.102c1.16,0,2.1,0.808,2.1,1.803C512.678,198.698,511.738,199.506,510.578,199.506z
			 M497.962,199.506h-2.102c-1.161,0-2.1-0.808-2.1-1.802c0-0.996,0.938-1.803,2.1-1.803h2.102c1.16,0,2.1,0.808,2.1,1.803
			C500.062,198.698,499.122,199.506,497.962,199.506z M485.348,199.506h-2.104c-1.161,0-2.1-0.808-2.1-1.802
			c0-0.996,0.938-1.803,2.1-1.803h2.104c1.16,0,2.1,0.808,2.1,1.803C487.447,198.698,486.508,199.506,485.348,199.506z
			 M472.731,199.506h-2.102c-1.16,0-2.1-0.808-2.1-1.802c0-0.996,0.939-1.803,2.1-1.803h2.102c1.161,0,2.1,0.808,2.1,1.803
			C474.831,198.698,473.893,199.506,472.731,199.506z M460.115,199.506h-2.102c-1.16,0-2.1-0.808-2.1-1.802
			c0-0.996,0.939-1.803,2.1-1.803h2.102c1.161,0,2.1,0.808,2.1,1.803C462.215,198.698,461.276,199.506,460.115,199.506z
			 M447.501,199.506h-2.104c-1.16,0-2.1-0.808-2.1-1.802c0-0.996,0.939-1.803,2.1-1.803h2.104c1.161,0,2.1,0.808,2.1,1.803
			C449.601,198.698,448.662,199.506,447.501,199.506z M434.885,199.506h-2.102c-1.16,0-2.1-0.808-2.1-1.802
			c0-0.996,0.939-1.803,2.1-1.803h2.102c1.161,0,2.1,0.808,2.1,1.803C436.984,198.698,436.046,199.506,434.885,199.506z
			 M422.269,199.506h-2.102c-1.161,0-2.1-0.808-2.1-1.802c0-0.996,0.939-1.803,2.1-1.803h2.102c1.161,0,2.1,0.808,2.1,1.803
			C424.369,198.698,423.43,199.506,422.269,199.506z M409.655,199.506h-2.104c-1.161,0-2.1-0.808-2.1-1.802
			c0-0.996,0.939-1.803,2.1-1.803h2.104c1.161,0,2.1,0.808,2.1,1.803C411.754,198.698,410.815,199.506,409.655,199.506z
			 M397.039,199.506h-2.104c-1.161,0-2.1-0.808-2.1-1.802c0-0.996,0.939-1.803,2.1-1.803h2.104c1.16,0,2.1,0.808,2.1,1.803
			C399.139,198.698,398.199,199.506,397.039,199.506z M384.423,199.506h-2.102c-1.161,0-2.1-0.808-2.1-1.802
			c0-0.996,0.939-1.803,2.1-1.803h2.102c1.16,0,2.1,0.808,2.1,1.803C386.522,198.698,385.583,199.506,384.423,199.506z
			 M371.807,199.506h-2.102c-1.161,0-2.1-0.808-2.1-1.802c0-0.996,0.939-1.803,2.1-1.803h2.102c1.161,0,2.1,0.808,2.1,1.803
			C373.906,198.698,372.967,199.506,371.807,199.506z M359.192,199.506h-2.104c-1.161,0-2.1-0.808-2.1-1.802
			c0-0.996,0.939-1.803,2.1-1.803h2.104c1.161,0,2.1,0.808,2.1,1.803C361.292,198.698,360.353,199.506,359.192,199.506z
			 M346.576,199.506h-2.102c-1.161,0-2.1-0.808-2.1-1.802c0-0.996,0.939-1.803,2.1-1.803h2.102c1.161,0,2.1,0.808,2.1,1.803
			C348.676,198.698,347.737,199.506,346.576,199.506z M333.96,199.506h-2.102c-1.16,0-2.1-0.808-2.1-1.802
			c0-0.996,0.939-1.803,2.1-1.803h2.102c1.161,0,2.1,0.808,2.1,1.803C336.06,198.698,335.121,199.506,333.96,199.506z
			 M321.346,199.506h-2.104c-1.16,0-2.1-0.808-2.1-1.802c0-0.996,0.939-1.803,2.1-1.803h2.104c1.161,0,2.1,0.808,2.1,1.803
			C323.446,198.698,322.507,199.506,321.346,199.506z M308.73,199.506h-2.102c-1.161,0-2.1-0.808-2.1-1.802
			c0-0.996,0.939-1.803,2.1-1.803h2.102c1.161,0,2.1,0.808,2.1,1.803C310.83,198.698,309.891,199.506,308.73,199.506z
			 M296.114,199.506h-2.102c-1.161,0-2.1-0.808-2.1-1.802c0-0.996,0.939-1.803,2.1-1.803h2.102c1.161,0,2.1,0.808,2.1,1.803
			C298.213,198.698,297.274,199.506,296.114,199.506z M283.5,199.506h-2.104c-1.161,0-2.1-0.808-2.1-1.802
			c0-0.996,0.939-1.803,2.1-1.803h2.104c1.16,0,2.1,0.808,2.1,1.803C285.6,198.698,284.66,199.506,283.5,199.506z M270.884,199.506
			h-2.104c-1.16,0-2.1-0.808-2.1-1.802c0-0.996,0.939-1.803,2.1-1.803h2.104c1.16,0,2.1,0.808,2.1,1.803
			C272.983,198.698,272.044,199.506,270.884,199.506z M258.268,199.506h-2.102c-1.161,0-2.1-0.808-2.1-1.802
			c0-0.996,0.939-1.803,2.1-1.803h2.102c1.161,0,2.1,0.808,2.1,1.803C260.367,198.698,259.428,199.506,258.268,199.506z
			 M245.653,199.506h-2.104c-1.161,0-2.1-0.808-2.1-1.802c0-0.996,0.939-1.803,2.1-1.803h2.104c1.161,0,2.1,0.808,2.1,1.803
			C247.753,198.698,246.814,199.506,245.653,199.506z M233.037,199.506h-2.104c-1.161,0-2.1-0.808-2.1-1.802
			c0-0.996,0.939-1.803,2.1-1.803h2.104c1.161,0,2.1,0.808,2.1,1.803C235.137,198.698,234.198,199.506,233.037,199.506z
			 M220.421,199.506h-2.102c-1.16,0-2.1-0.808-2.1-1.802c0-0.996,0.939-1.803,2.1-1.803h2.102c1.16,0,2.1,0.808,2.1,1.803
			C222.521,198.698,221.582,199.506,220.421,199.506z M207.805,199.506h-2.102c-1.16,0-2.1-0.808-2.1-1.802
			c0-0.996,0.939-1.803,2.1-1.803h2.102c1.16,0,2.1,0.808,2.1,1.803C209.905,198.698,208.965,199.506,207.805,199.506z"/>
		<path fill="#4C81C2" d="M673.527,199.506h-1.05c-1.16,0-2.1-0.808-2.1-1.802c0-0.996,0.939-1.803,2.1-1.803h1.05
			c1.161,0,2.1,0.808,2.1,1.803C675.627,198.698,674.688,199.506,673.527,199.506z"/>
	</g>
	<g>
		<g>
			<g>
				<path d="M308.882,100.685H203.343c-4.607,0-8.351,3.668-8.351,8.183v57.715c0,4.514,3.744,8.178,8.351,8.178h105.539
					c4.607,0,8.351-3.664,8.351-8.178v-57.715C317.233,104.354,313.489,100.685,308.882,100.685z M199.605,121.049h113.012v45.534
					c0,0.98-0.761,1.78-1.696,1.78H201.303c-0.935,0-1.698-0.8-1.698-1.78V121.049z M201.303,107.07h109.619
					c0.935,0,1.696,0.806,1.696,1.798v7.945H199.605v-7.945C199.605,107.876,200.368,107.07,201.303,107.07z"/>
				<polygon points="217.92,153.291 223.204,153.291 223.204,144.152 233.355,144.152 233.355,139.782 223.204,139.782 
					223.204,130.725 217.92,130.725 217.92,139.782 207.776,139.782 207.776,144.152 217.92,144.152 				"/>
				<rect x="279.27" y="139.07" width="25.382" height="5.638"/>
			</g>
			<rect x="214.742" y="94.193" width="14.636" height="8.458"/>
			<rect x="282.114" y="94.193" width="14.636" height="8.458"/>
		</g>
		<path d="M256.869,125.664c-10.44,0-18.898,7.27-18.898,16.226c0,8.955,8.458,16.225,18.898,16.225
			c10.437,0,18.895-7.27,18.895-16.225C275.764,132.934,267.306,125.664,256.869,125.664z M254.468,154.813l4.921-10.727
			l-16.225-0.195l14.411-14.928l-4.191,9.952h16.701L254.468,154.813z"/>
	</g>
	<g>
		<path d="M563.486,129.188c-0.258,0-0.521-0.066-0.746-0.201l-25.434-15.082c-0.513-0.304-0.707-0.873-0.465-1.366l5.107-10.432
			l-1.639-0.974c-0.59-0.35-0.744-1.042-0.344-1.554l5.49-7.052c0.195-0.25,0.501-0.424,0.847-0.481
			c0.347-0.055,0.704,0.009,0.993,0.181l6.725,3.991l8.02-10.406c0.574-0.745,1.451-1.252,2.475-1.426
			c1.046-0.176,2.12,0.014,3.017,0.54c1.806,1.081,2.284,3.203,1.074,4.738l-8.035,10.446l8.322,4.939l8.015-10.413
			c0.58-0.752,1.467-1.26,2.496-1.43c1.045-0.173,2.113,0.022,2.999,0.551c1.796,1.055,2.282,3.178,1.074,4.729l-8.037,10.448
			l6.776,4.021c0.591,0.351,0.744,1.042,0.345,1.555l-5.487,7.054c-0.194,0.251-0.5,0.425-0.847,0.481
			c-0.347,0.055-0.705-0.01-0.994-0.18l-1.614-0.961l-9.199,7.951C564.165,129.074,563.827,129.188,563.486,129.188z
			 M539.68,112.568l23.649,14.025l9.204-7.952c0.446-0.389,1.156-0.445,1.681-0.133l1.419,0.845l4.025-5.175l-6.771-4.016
			c-0.589-0.35-0.744-1.039-0.351-1.551l8.751-11.375c0.416-0.531,0.244-1.258-0.377-1.623c-0.308-0.182-0.662-0.25-1.009-0.193
			c-0.33,0.055-0.615,0.219-0.802,0.459l-8.753,11.373c-0.195,0.254-0.501,0.429-0.848,0.486c-0.346,0.059-0.705-0.007-0.996-0.18
			l-10.488-6.221c-0.588-0.35-0.742-1.038-0.348-1.551l8.753-11.378c0.416-0.53,0.241-1.255-0.38-1.627
			c-0.299-0.175-0.664-0.245-1.017-0.184c-0.326,0.056-0.607,0.218-0.792,0.456l-8.759,11.368c-0.194,0.253-0.5,0.428-0.847,0.485
			c-0.351,0.058-0.708-0.007-0.997-0.18l-6.731-3.994l-4.028,5.176l1.451,0.863c0.513,0.303,0.705,0.874,0.466,1.365L539.68,112.568
			z"/>
		<path d="M600.373,186.43c-0.351,0-0.695-0.118-0.949-0.346l-2.899-2.585c-0.457-0.408-0.489-1.043-0.08-1.487
			c5.598-6.034,11.387-12.275,10.082-18.164c-1.615-7.293-9.141-12.661-19.169-13.675c-7.457-0.758-11.911,2.615-17.074,6.517
			c-4.074,3.075-8.275,6.246-13.996,6.958c-8.968,1.123-16.907-1.661-21.237-7.442c-0.289-0.374-0.563-0.771-0.813-1.176
			c-4.188-6.688-3.151-15.341,2.821-23.875l-2.903-1.726c-0.375-0.223-0.588-0.595-0.563-0.985l0.427-7.165
			c0.004-0.101,0.026-0.198,0.062-0.293l2.573-6.778c0.129-0.339,0.437-0.605,0.83-0.719c0.394-0.113,0.826-0.06,1.167,0.141
			l23.952,14.216c0.335,0.2,0.544,0.522,0.564,0.873c0.021,0.349-0.15,0.688-0.462,0.915l-6.268,4.58
			c-0.091,0.065-0.191,0.121-0.298,0.164l-7.481,2.984c-0.425,0.168-0.919,0.132-1.302-0.096l-2.45-1.455
			c-0.74,1.476-1.579,2.652-2.474,3.454c-2.296,4.986-2.223,9.503,0.218,12.736c2.398,3.199,6.896,4.645,12.335,3.963
			c3.071-0.384,5.967-2.573,9.321-5.106c5.645-4.262,12.668-9.555,24.104-8.398c16.908,1.708,23.346,11.419,25.77,19.266l0,0
			c3.006,9.726-5.946,21.23-13.187,24.57C600.798,186.386,600.585,186.43,600.373,186.43z M599.217,182.645l1.38,1.229
			c5.743-3.216,13.683-13.031,11.044-21.57l0,0c-2.215-7.17-8.098-16.044-23.537-17.604c-10.278-1.04-16.807,3.886-22.054,7.844
			c-3.675,2.778-6.843,5.171-10.687,5.652c-6.496,0.809-11.942-0.999-14.921-4.973c-2.953-3.912-3.076-9.247-0.349-15.016
			c0.069-0.147,0.174-0.28,0.308-0.39c0.537-0.443,1.593-1.568,2.643-4.124c0.138-0.331,0.445-0.59,0.835-0.697
			c0.387-0.109,0.813-0.055,1.154,0.145l3.198,1.9l6.64-2.647l4.828-3.528l-21.092-12.52l-1.975,5.196l-0.38,6.388l3.328,1.979
			c0.582,0.345,0.74,1.023,0.36,1.535c-5.941,8-7.209,16.42-3.385,22.521c0.215,0.349,0.445,0.684,0.695,1.01
			c3.767,5.024,10.735,7.431,18.656,6.439c4.949-0.616,8.854-3.563,12.631-6.413c5.171-3.909,10.51-7.941,19.126-7.071
			c11.191,1.131,19.61,7.213,21.445,15.494C610.576,170.056,604.947,176.451,599.217,182.645z"/>
	</g>
	<g>
		<path d="M583.634,316.149c-33.2,0-60.212-23.188-60.212-51.689c0-28.502,27.012-51.69,60.212-51.69
			c33.202,0,60.212,23.188,60.212,51.69C643.846,292.961,616.836,316.149,583.634,316.149z M583.634,215.29
			c-31.582,0-57.274,22.058-57.274,49.17c0,27.111,25.692,49.17,57.274,49.17s57.276-22.059,57.276-49.17
			C640.91,237.348,615.216,215.29,583.634,215.29z"/>
		<path d="M633.748,260.392c-0.326,0-0.65-0.093-0.915-0.273c-28.127-19.186-70.714-15.463-98.243-1.873
			c-0.492,0.245-1.104,0.223-1.57-0.057c-0.468-0.28-0.703-0.767-0.609-1.247c2.032-10.239,4.901-19.917,12.059-21.403
			c0.187-0.038,0.378-0.046,0.568-0.02c2.989,0.388,7.951-2.63,13.215-5.828c7.226-4.388,16.219-9.853,25.382-9.853
			c9.01,0,16.204,4.188,23.163,8.238c5.141,2.991,9.994,5.815,15.141,6.65c9.112,1.877,12.313,17.585,13.268,24.25
			c0.072,0.508-0.219,1.006-0.739,1.253C634.242,260.339,633.994,260.392,633.748,260.392z M584.971,244.382
			c16.567,0,33.133,3.55,46.827,11.914c-1.673-8.995-5.143-18.004-10.476-19.104c-5.674-0.921-10.772-3.888-16.174-7.028
			c-6.592-3.837-13.407-7.805-21.515-7.805c-8.229,0-16.44,4.987-23.687,9.389c-5.855,3.558-10.94,6.633-15.029,6.298
			c-5.243,1.35-7.798,10.737-9.083,16.729C549.952,248.346,567.465,244.382,584.971,244.382z"/>
		<path d="M571.299,307.764c-0.121,0-0.242-0.01-0.359-0.037c-18.474-3.995-32.898-16.314-37.647-32.148
			c-0.147-0.488,0.062-1.008,0.529-1.314c0.47-0.308,1.107-0.346,1.618-0.097c3.18,1.548,7.517,1.976,12.107,2.428
			c7.822,0.772,15.911,1.569,20.888,7.058c4.207,4.64,5.661,12.374,4.324,22.989c-0.048,0.361-0.273,0.689-0.622,0.897
			C571.887,307.687,571.594,307.764,571.299,307.764z M536.999,277.496c5.021,13.242,17.361,23.52,33.008,27.402
			c0.953-9.174-0.353-15.796-3.89-19.696c-4.22-4.652-11.686-5.39-18.906-6.102C543.717,278.756,540.133,278.4,536.999,277.496z"/>
		<path d="M582.276,252.481c-3.726,0.076-7.447,0.342-11.16,0.706c-3.718,0.338-7.412,0.864-11.105,1.418
			c-7.385,1.151-14.679,2.768-21.996,4.498c6.832-2.822,14.043-5.064,21.453-6.645c3.699-0.824,7.464-1.421,11.248-1.92
			c3.794-0.468,7.618-0.75,11.456-0.883c3.838-0.081,7.689-0.004,11.52,0.304c3.823,0.346,7.64,0.843,11.367,1.668
			c7.457,1.588,14.64,4.241,20.824,8.042c-6.873-2.775-14.039-4.736-21.37-5.884c-3.668-0.548-7.358-0.976-11.074-1.157
			C589.728,252.409,586,252.356,582.276,252.481z"/>
		<path d="M595.497,307.859c-0.301,0-0.599-0.08-0.849-0.231c-0.347-0.211-0.57-0.54-0.613-0.902
			c-1.201-10.3,0.277-17.824,4.396-22.365c4.979-5.488,13.067-6.288,20.89-7.058c4.677-0.462,9.094-0.897,12.286-2.518
			c0.517-0.261,1.162-0.229,1.638,0.084c0.476,0.312,0.683,0.838,0.527,1.334c-4.993,15.686-19.526,27.801-37.931,31.621
			C595.729,307.849,595.612,307.859,595.497,307.859z M629.993,278.164c-3.161,0.936-6.795,1.294-10.338,1.643
			c-7.22,0.713-14.685,1.448-18.904,6.103c-3.453,3.806-4.78,10.227-3.947,19.095C612.355,301.283,624.755,291.223,629.993,278.164z
			"/>
		<path d="M544.051,273.07c1.32,0.04,3.42,0.215,4.915,0.338l0.162-3.387c-1.542,0.151-3.373,0.423-4.124,0.78
			C544.03,271.269,543.963,272.334,544.051,273.07z"/>
		<path d="M554.151,274.121c2.901,0.699,3.172,0.787,4.841,1.448c0.224,0.048,0.442,0.098,0.656,0.146l0.718-4.471l-6.015-1.092
			L554.151,274.121z"/>
		<path d="M570.512,275.132c-1.1-1.646-3.585-2.459-5.042-2.808l-1.243,4.746c2.416,0.897,4.634,2.03,6.623,3.386
			C571.383,279.224,571.868,277.161,570.512,275.132z"/>
		<path d="M621.466,270.802c-0.753-0.357-2.581-0.629-4.123-0.78l0.162,3.387c1.496-0.123,3.596-0.298,4.914-0.338
			C622.51,272.334,622.443,271.269,621.466,270.802z"/>
		<path d="M612.12,270.152l-6.016,1.092l0.718,4.471c0.213-0.048,0.433-0.098,0.658-0.146c1.666-0.661,1.936-0.749,4.841-1.448
			L612.12,270.152z"/>
		<path d="M595.625,280.456c1.986-1.355,4.205-2.488,6.618-3.383l-1.24-4.749c-1.458,0.35-3.945,1.163-5.044,2.81
			C594.607,277.152,595.096,279.221,595.625,280.456z"/>
	</g>
	<g>
		<g>
			<path d="M306.366,307.866c-0.312,0-0.623-0.103-0.861-0.307l-5.009-4.304c-0.476-0.407-0.476-1.068,0-1.477l6.561-5.632
				c0.474-0.408,1.245-0.408,1.719,0l5.015,4.301c0.229,0.195,0.356,0.461,0.356,0.74c0,0.276-0.127,0.542-0.356,0.737l-6.565,5.634
				C306.987,307.764,306.675,307.866,306.366,307.866z M303.075,302.519l3.291,2.827l4.845-4.157l-3.295-2.827L303.075,302.519z"/>
			<path d="M209.542,223.303c-0.312,0-0.623-0.103-0.861-0.306l-7.991-6.86c-0.476-0.406-0.476-1.069,0-1.478l4.884-4.192
				c0.476-0.408,1.245-0.408,1.72,0l7.993,6.86c0.228,0.194,0.354,0.46,0.354,0.737s-0.127,0.542-0.354,0.739l-4.886,4.193
				C210.163,223.2,209.852,223.303,209.542,223.303z M203.27,215.399l6.272,5.382l3.166-2.717l-6.274-5.383L203.27,215.399z"/>
			<path d="M300.174,308.588L300.174,308.588c-0.322,0-0.632-0.111-0.859-0.307l-6.627-5.69c-0.476-0.408-0.476-1.068,0-1.477
				l13.592-11.67c0.476-0.409,1.247-0.409,1.72,0l6.629,5.688c0.229,0.196,0.357,0.461,0.357,0.739c0,0.276-0.127,0.542-0.357,0.738
				l-13.594,11.671C300.805,308.477,300.498,308.588,300.174,308.588z M295.267,301.854l4.907,4.214l11.876-10.195l-4.909-4.214
				L295.267,301.854z"/>
		</g>
		<g>
			<g>
				<g>
					<g>
						<path d="M233.683,265.793c-0.312,0-0.623-0.101-0.861-0.306l-5.919-5.08c-0.228-0.195-0.356-0.461-0.356-0.737
							s0.129-0.543,0.356-0.737l9.856-8.464c0.229-0.192,0.537-0.306,0.861-0.306l0,0c0.322,0,0.631,0.113,0.859,0.306l5.917,5.083
							c0.476,0.408,0.476,1.068,0,1.477l-9.854,8.459C234.305,265.692,233.993,265.793,233.683,265.793z M229.482,259.67
							l4.201,3.604l8.134-6.984l-4.197-3.604L229.482,259.67z"/>
					</g>
				</g>
				<g>
					<g>
						<path d="M254.144,283.361c-0.31,0-0.621-0.103-0.859-0.305l-5.922-5.083c-0.228-0.195-0.356-0.461-0.356-0.738
							c0-0.275,0.129-0.542,0.356-0.736l9.858-8.465c0.228-0.195,0.537-0.305,0.861-0.305l0,0c0.322,0,0.631,0.109,0.859,0.305
							l5.92,5.082c0.474,0.408,0.474,1.07,0,1.478l-9.856,8.463C254.768,283.259,254.456,283.361,254.144,283.361z M249.943,277.235
							l4.201,3.606l8.138-6.986l-4.199-3.604L249.943,277.235z"/>
					</g>
				</g>
			</g>
			<g>
				<g>
					<g>
						<path d="M213.109,230.636c-0.324,0-0.631-0.11-0.859-0.307l-5.92-5.083c-0.476-0.409-0.476-1.067,0-1.476l9.854-8.462
							c0.476-0.408,1.245-0.405,1.72-0.001l5.921,5.08c0.228,0.197,0.357,0.463,0.357,0.738c0,0.279-0.129,0.543-0.357,0.74
							l-9.858,8.463C213.741,230.525,213.434,230.636,213.109,230.636z M208.91,224.508l4.199,3.606l8.138-6.988l-4.204-3.602
							L208.91,224.508z"/>
					</g>
				</g>
				<g>
					<g>
						<path d="M295.002,300.936c-0.31,0-0.621-0.1-0.859-0.305l-5.919-5.082c-0.23-0.197-0.357-0.462-0.357-0.739
							s0.127-0.543,0.357-0.737l9.856-8.461c0.476-0.408,1.245-0.408,1.72,0l5.92,5.083c0.228,0.194,0.356,0.46,0.356,0.738
							c0,0.275-0.129,0.542-0.356,0.736l-9.856,8.462C295.626,300.836,295.314,300.936,295.002,300.936z M290.803,294.81
							l4.199,3.607l8.138-6.984l-4.201-3.607L290.803,294.81z"/>
					</g>
				</g>
				<g>
					<g>
						<path d="M254.107,265.827c-0.312,0-0.624-0.103-0.861-0.305l-5.919-5.084c-0.228-0.194-0.357-0.46-0.357-0.736
							c0-0.277,0.129-0.543,0.357-0.737l9.858-8.462c0.228-0.195,0.535-0.306,0.859-0.306l0,0c0.322,0,0.632,0.11,0.859,0.306
							l5.917,5.081c0.476,0.408,0.476,1.071,0,1.478l-9.854,8.461C254.729,265.725,254.419,265.827,254.107,265.827z
							 M249.906,259.702l4.202,3.604l8.134-6.982l-4.197-3.607L249.906,259.702z"/>
					</g>
				</g>
				<g>
					<g>
						<path d="M274.568,283.394c-0.312,0-0.624-0.103-0.859-0.306l-5.923-5.082c-0.228-0.196-0.357-0.461-0.357-0.739
							c0-0.276,0.129-0.542,0.357-0.737l9.858-8.461c0.476-0.407,1.245-0.407,1.72,0l5.919,5.082c0.474,0.407,0.474,1.067,0,1.476
							l-9.856,8.462C275.191,283.291,274.88,283.394,274.568,283.394z M270.365,277.267l4.204,3.607l8.136-6.984l-4.199-3.607
							L270.365,277.267z"/>
					</g>
				</g>
				<g>
					<g>
						<path d="M233.644,248.262c-0.322,0-0.631-0.108-0.859-0.306l-5.919-5.082c-0.476-0.406-0.476-1.067,0-1.476l9.856-8.462
							c0.228-0.196,0.538-0.308,0.859-0.308l0,0c0.324,0,0.631,0.111,0.859,0.308l5.919,5.082c0.474,0.41,0.474,1.069,0,1.478
							l-9.856,8.46C234.276,248.153,233.968,248.262,233.644,248.262z M229.445,242.137l4.199,3.605l8.136-6.984l-4.199-3.607
							L229.445,242.137z"/>
					</g>
				</g>
			</g>
			<g>
				<g>
					<g>
						<path d="M233.603,230.729L233.603,230.729c-0.322,0-0.631-0.108-0.859-0.305l-5.919-5.082c-0.474-0.41-0.474-1.069,0-1.478
							l9.856-8.461c0.456-0.392,1.263-0.392,1.721,0l5.919,5.083c0.228,0.195,0.356,0.461,0.356,0.738
							c0,0.275-0.129,0.543-0.356,0.736l-9.856,8.463C234.237,230.62,233.927,230.729,233.603,230.729z M229.404,224.603
							l4.199,3.607l8.138-6.985l-4.201-3.607L229.404,224.603z"/>
					</g>
				</g>
				<g>
					<g>
						<path d="M294.99,283.428L294.99,283.428c-0.324,0-0.631-0.11-0.859-0.307l-5.92-5.084c-0.474-0.408-0.474-1.067,0-1.475
							l9.856-8.459c0.474-0.408,1.245-0.408,1.718,0l5.921,5.081c0.228,0.195,0.355,0.461,0.355,0.737
							c0,0.278-0.127,0.543-0.355,0.74l-9.858,8.459C295.622,283.317,295.314,283.428,294.99,283.428z M290.793,277.3l4.197,3.607
							l8.138-6.985l-4.201-3.604L290.793,277.3z"/>
					</g>
				</g>
			</g>
		</g>
		<g>
			<path d="M226.355,243.717c-0.31,0-0.621-0.101-0.859-0.305l-1.634-1.402c-0.386-0.329-0.47-0.84-0.203-1.248l4.862-7.457
				c0.055-0.086,0.123-0.162,0.203-0.229l15.21-13.058c0.476-0.408,1.245-0.408,1.72,0l1.632,1.401
				c0.385,0.331,0.467,0.842,0.203,1.25l-4.862,7.46c-0.053,0.084-0.123,0.16-0.201,0.228l-15.21,13.056
				C226.979,243.616,226.667,243.717,226.355,243.717z M226.232,241.091l0.123,0.107l14.232-12.216l4.328-6.645l-0.121-0.105
				l-14.234,12.216L226.232,241.091z"/>
			<path d="M226.447,261.195L226.447,261.195c-0.322,0-0.634-0.108-0.861-0.306l-1.632-1.402c-0.383-0.329-0.465-0.84-0.201-1.248
				l4.862-7.458c0.055-0.083,0.123-0.16,0.203-0.229l15.208-13.057c0.476-0.407,1.245-0.407,1.72,0l1.636,1.402
				c0.383,0.332,0.468,0.842,0.201,1.248l-4.864,7.46c-0.053,0.085-0.121,0.16-0.201,0.229l-15.212,13.059
				C227.079,261.087,226.771,261.195,226.447,261.195z M226.326,258.569l0.123,0.106l14.23-12.216l4.333-6.644l-0.127-0.107
				l-14.23,12.219L226.326,258.569z"/>
			<path d="M255.214,285.89c-0.313,0-0.625-0.104-0.859-0.306l-1.634-1.401c-0.228-0.195-0.357-0.461-0.357-0.737
				c0-0.278,0.129-0.543,0.357-0.74l15.21-13.057c0.08-0.066,0.168-0.125,0.267-0.173l8.689-4.171
				c0.474-0.229,1.066-0.158,1.454,0.172l1.632,1.401c0.229,0.193,0.357,0.462,0.357,0.735c0,0.278-0.127,0.544-0.357,0.74
				l-15.208,13.057c-0.078,0.068-0.168,0.127-0.267,0.174l-8.689,4.173C255.623,285.846,255.417,285.89,255.214,285.89z
				 M255.301,283.443l0.123,0.105l7.74-3.716l14.229-12.216l-0.123-0.105l-7.738,3.718L255.301,283.443z"/>
			<path d="M275.575,285.971c-0.316,0-0.625-0.104-0.861-0.306l-1.634-1.4c-0.228-0.197-0.357-0.46-0.357-0.739
				c0-0.277,0.129-0.541,0.357-0.738l15.212-13.058c0.078-0.066,0.168-0.125,0.265-0.172l8.689-4.173
				c0.476-0.228,1.068-0.158,1.454,0.173l1.634,1.401c0.228,0.194,0.357,0.461,0.357,0.737c0,0.277-0.129,0.544-0.357,0.737
				l-15.208,13.058c-0.078,0.067-0.168,0.127-0.267,0.172l-8.692,4.174C275.981,285.927,275.778,285.971,275.575,285.971z
				 M275.661,283.525l0.121,0.104l7.742-3.718l14.228-12.214l-0.121-0.105l-7.74,3.718L275.661,283.525z"/>
			<path d="M216.127,234.939L216.127,234.939c-0.324,0-0.631-0.11-0.861-0.307l-3.545-3.045c-0.476-0.406-0.476-1.069,0-1.478
				l15.21-13.057c0.08-0.066,0.17-0.125,0.267-0.173l8.689-4.174c0.474-0.228,1.068-0.155,1.454,0.175l1.632,1.401
				c0.476,0.408,0.476,1.068,0,1.477l-21.986,18.873C216.759,234.829,216.45,234.939,216.127,234.939z M214.301,230.851l1.827,1.568
				l20.269-17.396l-0.125-0.105l-7.738,3.716L214.301,230.851z"/>
			<path d="M234.762,268.331c-0.314,0-0.625-0.104-0.859-0.306l-1.634-1.402c-0.228-0.196-0.357-0.459-0.357-0.737
				c0-0.276,0.129-0.542,0.357-0.739l32.117-27.571c0.476-0.408,1.245-0.405,1.721-0.001l3.547,3.045
				c0.228,0.197,0.357,0.461,0.357,0.74c0,0.277-0.129,0.542-0.357,0.738l-25.339,21.753c-0.08,0.068-0.17,0.127-0.267,0.172
				l-8.691,4.176C235.17,268.287,234.965,268.331,234.762,268.331z M234.848,265.886l0.123,0.104l7.743-3.718l24.361-20.913
				l-1.829-1.568L234.848,265.886z"/>
			<path d="M277.58,305.093L277.58,305.093c-0.322,0-0.631-0.11-0.859-0.308l-3.545-3.045c-0.476-0.408-0.476-1.07,0-1.479
				l32.118-27.569c0.228-0.196,0.535-0.305,0.859-0.305l0,0c0.324,0,0.631,0.108,0.859,0.305l1.634,1.402
				c0.383,0.331,0.465,0.84,0.201,1.248l-4.863,7.46c-0.053,0.083-0.121,0.16-0.201,0.227l-25.341,21.756
				C278.214,304.982,277.904,305.093,277.58,305.093z M275.755,301.002l1.825,1.569l24.363-20.915l4.333-6.645l-0.123-0.105
				L275.755,301.002z"/>
			<path d="M246.902,278.756L246.902,278.756c-0.322,0-0.632-0.11-0.859-0.307l-1.632-1.404c-0.386-0.329-0.468-0.838-0.203-1.246
				l4.861-7.461c0.053-0.083,0.123-0.161,0.201-0.229l25.341-21.756c0.476-0.408,1.245-0.408,1.72,0l3.549,3.046
				c0.228,0.197,0.354,0.461,0.354,0.739c0,0.276-0.127,0.542-0.354,0.737l-32.118,27.573
				C247.536,278.646,247.226,278.756,246.902,278.756z M246.781,276.13l0.121,0.105l30.399-26.097l-1.829-1.57l-24.363,20.915
				L246.781,276.13z"/>
		</g>
	</g>
	<g>
		<g>
			<g>
				<rect x="488.458" y="225.552" width="4.753" height="75.192"/>
				<rect x="360.017" y="225.552" width="4.755" height="75.192"/>
			</g>
			<rect x="349.252" y="240.377" width="6.213" height="53.043"/>
			<g>
				<g>
					<rect x="365.959" y="228.175" width="121.31" height="2.039"/>
					<rect x="365.959" y="298.706" width="121.31" height="2.038"/>
					<rect x="365.959" y="234.585" width="121.31" height="2.04"/>
					<rect x="365.959" y="292.292" width="121.31" height="2.042"/>
				</g>
			</g>
			<path d="M358.803,300.744c-4.667,0-8.458-3.257-8.458-7.259v-54.391c0-4.004,3.791-7.264,8.458-7.264v3.067
				c-2.694,0-4.888,1.883-4.888,4.196v54.391c0,2.311,2.194,4.192,4.888,4.192V300.744z"/>
			<rect x="494.773" y="296.626" width="4.074" height="4.118"/>
			<g>
				<g>
					<rect x="467.977" y="222.658" width="6.791" height="4.121"/>
					<rect x="463.904" y="301.973" width="14.936" height="2.605"/>
				</g>
				<g>
					<rect x="374.39" y="301.973" width="14.939" height="2.605"/>
					<rect x="378.464" y="222.658" width="6.791" height="4.121"/>
				</g>
			</g>
		</g>
		<g>
			<g>
				<path d="M434.778,245.921c0,3.602-10.28,10.94-13.248,13.487c-2.965,2.544-1.946-9.886-1.946-13.487s3.402-6.521,7.597-6.521
					C431.377,239.4,434.778,242.319,434.778,245.921z"/>
				<path d="M418.451,282.998c0-3.601,10.281-10.941,13.248-13.487c2.965-2.545,1.945,9.887,1.945,13.487
					c0,3.602-3.401,6.521-7.597,6.521C421.853,289.52,418.451,286.6,418.451,282.998z"/>
				<path d="M448.211,271.466c-4.197,0-12.745-8.822-15.713-11.369c-2.965-2.548,11.516-1.671,15.713-1.671
					c4.195,0,7.597,2.919,7.597,6.52C455.808,268.547,452.406,271.466,448.211,271.466z"/>
				<path d="M405.019,257.452c4.195,0,12.745,8.823,15.71,11.373c2.967,2.545-11.515,1.668-15.71,1.668s-7.597-2.919-7.597-6.52
					C397.422,260.372,400.824,257.452,405.019,257.452z"/>
			</g>
			<path d="M426.614,256.969c-4.818,0-8.727,3.352-8.727,7.491c0,4.136,3.908,7.49,8.727,7.49c4.821,0,8.727-3.354,8.727-7.49
				C435.341,260.32,431.435,256.969,426.614,256.969z M426.614,266.521c-1.327,0-2.401-0.922-2.401-2.061
				c0-1.138,1.074-2.062,2.401-2.062s2.403,0.924,2.403,2.062C429.017,265.599,427.94,266.521,426.614,266.521z"/>
			<path d="M426.614,236.625c-17.904,0-32.421,12.463-32.421,27.835c0,15.371,14.517,27.832,32.421,27.832
				c17.907,0,32.423-12.461,32.423-27.832C459.037,249.088,444.521,236.625,426.614,236.625z M426.614,290.232
				c-16.58,0-30.02-11.54-30.02-25.772c0-14.233,13.44-25.772,30.02-25.772s30.022,11.539,30.022,25.772
				C456.636,278.692,443.193,290.232,426.614,290.232z"/>
		</g>
		<g>
			<path d="M398.345,247.41h-32.386v2.04h30.853C397.289,248.752,397.804,248.072,398.345,247.41z"/>
			<path d="M454.885,247.41c0.541,0.662,1.054,1.342,1.534,2.04h30.85v-2.04H454.885z"/>
		</g>
		<g>
			<path d="M405.484,240.998h-39.525v2.04h36.768C403.604,242.318,404.523,241.637,405.484,240.998z"/>
			<path d="M447.745,240.998c0.962,0.639,1.881,1.32,2.756,2.04h36.768v-2.04H447.745z"/>
		</g>
		<g>
			<path d="M394.351,253.822h-28.392v2.04h27.572C393.774,255.173,394.049,254.494,394.351,253.822z"/>
			<path d="M458.879,253.822c0.3,0.672,0.576,1.351,0.82,2.04h27.569v-2.04H458.879z"/>
		</g>
		<g>
			<path d="M392.401,260.235h-26.442v2.037h26.189C392.208,261.587,392.29,260.907,392.401,260.235z"/>
			<path d="M460.827,260.235c0.112,0.672,0.194,1.352,0.254,2.037h26.188v-2.037H460.827z"/>
		</g>
		<g>
			<path d="M392.148,266.646h-26.189v2.039h26.442C392.29,268.014,392.208,267.332,392.148,266.646z"/>
			<path d="M461.081,266.646c-0.06,0.686-0.142,1.367-0.254,2.039h26.441v-2.039H461.081z"/>
		</g>
		<g>
			<path d="M393.531,273.059h-27.572v2.039h28.394C394.051,274.429,393.774,273.75,393.531,273.059z"/>
			<path d="M459.699,273.059c-0.244,0.691-0.521,1.37-0.822,2.039h28.392v-2.039H459.699z"/>
		</g>
		<g>
			<path d="M396.812,279.47h-30.853v2.039h32.388C397.804,280.849,397.291,280.167,396.812,279.47z"/>
			<path d="M456.419,279.47c-0.48,0.697-0.993,1.379-1.536,2.039h32.386v-2.039H456.419z"/>
		</g>
		<g>
			<path d="M402.731,285.883h-36.772v2.038h39.525C404.523,287.282,403.606,286.604,402.731,285.883z"/>
			<path d="M450.499,285.883c-0.876,0.721-1.794,1.399-2.754,2.038h39.523v-2.038H450.499z"/>
		</g>
	</g>
	<g>
		<path d="M424.758,185.634c-0.035,0-0.072,0-0.106-0.002l-2.758-0.15c-0.706-0.038-1.321-0.421-1.589-0.972
			c-0.424-0.042-0.845-0.089-1.265-0.14l-0.674,0.367c-0.388,0.212-0.857,0.292-1.323,0.219l-2.721-0.445
			c-0.695-0.114-1.251-0.563-1.436-1.139c-0.416-0.085-0.83-0.174-1.24-0.268l-0.716,0.288c-0.422,0.174-0.908,0.199-1.361,0.069
			l-2.614-0.729c-0.668-0.184-1.156-0.686-1.259-1.277c-0.402-0.13-0.804-0.264-1.202-0.402l-0.744,0.205
			c-0.449,0.125-0.933,0.099-1.355-0.074l-2.491-1.008c-0.636-0.252-1.048-0.803-1.062-1.401c-0.381-0.173-0.761-0.349-1.136-0.53
			l-0.765,0.124c-0.459,0.076-0.937-0.001-1.337-0.22l-2.323-1.268c-0.597-0.323-0.922-0.914-0.849-1.508
			c-0.351-0.212-0.699-0.428-1.044-0.645l-0.781,0.041c-0.476,0.028-0.937-0.105-1.302-0.368l-2.112-1.501
			c-0.545-0.386-0.783-1.009-0.622-1.592c-0.317-0.247-0.629-0.496-0.937-0.748l-0.792-0.044c-0.47-0.024-0.909-0.202-1.23-0.5
			l-1.884-1.722c-0.484-0.443-0.627-1.09-0.381-1.651c-0.273-0.276-0.545-0.554-0.812-0.836l-0.783-0.13
			c-0.465-0.075-0.875-0.301-1.152-0.633l-1.614-1.906c-0.416-0.494-0.463-1.149-0.139-1.678c-0.232-0.304-0.459-0.609-0.685-0.919
			l-0.756-0.212c-0.447-0.126-0.818-0.39-1.046-0.744l-1.329-2.073c-0.34-0.535-0.293-1.188,0.106-1.677
			c-0.19-0.33-0.373-0.661-0.554-0.993l-0.711-0.29c-0.431-0.175-0.761-0.479-0.931-0.856l-1.013-2.194
			c-0.26-0.563-0.119-1.204,0.345-1.647c-0.142-0.349-0.277-0.701-0.408-1.054l-0.654-0.357c-0.398-0.217-0.681-0.553-0.798-0.943
			l-0.685-2.292c-0.174-0.584,0.057-1.203,0.578-1.594c-0.088-0.364-0.172-0.73-0.25-1.093l-0.593-0.424
			c-0.363-0.256-0.595-0.621-0.654-1.022l-0.346-2.346c-0.088-0.602,0.233-1.192,0.812-1.522c-0.033-0.369-0.064-0.739-0.086-1.106
			l-0.533-0.488c-0.324-0.3-0.498-0.684-0.498-1.083v-2.368c0-0.607,0.408-1.162,1.033-1.425c0.021-0.365,0.045-0.729,0.076-1.093
			l-0.465-0.551c-0.277-0.329-0.396-0.73-0.338-1.131l0.346-2.348c0.088-0.602,0.574-1.11,1.236-1.304
			c0.074-0.36,0.15-0.719,0.232-1.075l-0.379-0.596c-0.228-0.352-0.287-0.765-0.17-1.159l0.685-2.291
			c0.176-0.586,0.728-1.035,1.409-1.158c0.125-0.354,0.256-0.706,0.392-1.055l-0.287-0.624c-0.172-0.375-0.172-0.789,0-1.164
			l1.017-2.202c0.256-0.56,0.867-0.943,1.558-0.997c0.179-0.342,0.361-0.68,0.548-1.015l-0.189-0.638
			c-0.115-0.4-0.055-0.806,0.168-1.157l1.331-2.076c0.336-0.531,1-0.852,1.693-0.822c0.226-0.315,0.456-0.628,0.689-0.939
			l-0.094-0.661c-0.06-0.4,0.06-0.802,0.338-1.129l1.62-1.915c0.415-0.49,1.12-0.73,1.809-0.632
			c0.267-0.285,0.537-0.567,0.812-0.848v-0.677c0.006-0.412,0.183-0.794,0.502-1.086l1.886-1.724
			c0.486-0.444,1.229-0.606,1.895-0.43c0.306-0.255,0.615-0.506,0.925-0.752l0.101-0.677c0.06-0.403,0.295-0.769,0.665-1.027
			l2.116-1.502c0.547-0.388,1.304-0.469,1.942-0.224c0.338-0.218,0.681-0.435,1.025-0.646l0.199-0.663
			c0.117-0.392,0.402-0.728,0.802-0.945l2.323-1.266c0.601-0.324,1.362-0.325,1.956-0.015c0.371-0.184,0.745-0.362,1.12-0.535
			l0.289-0.627c0.181-0.384,0.513-0.685,0.941-0.854l2.483-1.004c0.638-0.258,1.392-0.178,1.938,0.192
			c0.396-0.141,0.796-0.28,1.2-0.414l0.375-0.584c0.222-0.351,0.595-0.617,1.046-0.743l2.623-0.731
			c0.666-0.185,1.402-0.028,1.89,0.396c0.415-0.098,0.833-0.191,1.253-0.282l0.458-0.537c0.274-0.326,0.683-0.55,1.146-0.625
			l2.708-0.443c0.706-0.113,1.402,0.127,1.821,0.6c0.426-0.052,0.851-0.101,1.277-0.143l0.537-0.489
			c0.322-0.293,0.759-0.471,1.23-0.495l2.75-0.149c0.708-0.05,1.374,0.268,1.722,0.798c0.425-0.006,0.847-0.006,1.273-0.004
			l0.615-0.435c0.365-0.261,0.827-0.391,1.302-0.359l2.739,0.149c0.705,0.038,1.32,0.421,1.589,0.97
			c0.425,0.042,0.845,0.09,1.265,0.14l0.675-0.365c0.398-0.216,0.871-0.294,1.333-0.218l2.711,0.443
			c0.696,0.117,1.253,0.565,1.435,1.139c0.419,0.085,0.833,0.174,1.245,0.268l0.714-0.287c0.43-0.172,0.916-0.196,1.365-0.067
			l2.61,0.727c0.668,0.186,1.156,0.687,1.259,1.277c0.401,0.13,0.804,0.264,1.201,0.403l0.742-0.206
			c0.449-0.123,0.934-0.099,1.361,0.077l2.487,1.006c0.636,0.255,1.046,0.804,1.063,1.4c0.381,0.174,0.761,0.351,1.136,0.53
			l0.765-0.123c0.466-0.076,0.941,0.003,1.337,0.22l2.323,1.266c0.597,0.326,0.921,0.917,0.849,1.509
			c0.353,0.212,0.701,0.428,1.044,0.646l0.781-0.042c0.461-0.031,0.927,0.098,1.298,0.366l2.118,1.503
			c0.543,0.385,0.779,1.008,0.619,1.591c0.317,0.248,0.63,0.497,0.935,0.749l0.792,0.043c0.472,0.026,0.912,0.204,1.234,0.503
			l1.768,1.616c0.394,0.298,0.627,0.735,0.627,1.19c0,0.2-0.045,0.391-0.127,0.568c0.272,0.274,0.543,0.553,0.81,0.833l0.781,0.129
			c0.462,0.076,0.869,0.299,1.148,0.627l1.514,1.789c0.299,0.289,0.469,0.667,0.469,1.057c0,0.263-0.078,0.521-0.224,0.75
			c0.232,0.302,0.46,0.607,0.681,0.912l0.759,0.212c0.453,0.129,0.824,0.394,1.048,0.749l1.236,1.93
			c0.214,0.264,0.33,0.581,0.33,0.904c0,0.343-0.127,0.658-0.34,0.918c0.187,0.328,0.369,0.657,0.545,0.987l0.714,0.288
			c0.431,0.176,0.759,0.479,0.931,0.855l0.941,2.043c0.14,0.227,0.213,0.479,0.213,0.736c0,0.412-0.183,0.786-0.481,1.068
			c0.138,0.348,0.274,0.698,0.404,1.05l0.653,0.357c0.4,0.22,0.686,0.558,0.798,0.95l0.636,2.121
			c0.078,0.178,0.119,0.369,0.119,0.56c0,0.429-0.209,0.849-0.574,1.148c-0.024,0.02-0.05,0.038-0.072,0.056
			c0.089,0.365,0.171,0.727,0.248,1.088l0.595,0.424c0.359,0.253,0.593,0.618,0.652,1.022l0.319,2.174
			c0.035,0.123,0.052,0.248,0.052,0.372c0,0.547-0.332,1.035-0.837,1.32c0.035,0.371,0.063,0.74,0.087,1.107l0.53,0.487
			c0.324,0.296,0.503,0.682,0.503,1.087v2.368c0,0.606-0.41,1.159-1.038,1.424c-0.021,0.366-0.043,0.73-0.073,1.093l0.465,0.551
			c0.277,0.329,0.396,0.73,0.337,1.131l-0.345,2.348c-0.093,0.606-0.578,1.11-1.236,1.303c-0.074,0.36-0.149,0.719-0.231,1.077
			l0.379,0.596c0.228,0.354,0.287,0.766,0.17,1.158l-0.685,2.291c-0.177,0.587-0.729,1.035-1.408,1.158
			c-0.125,0.354-0.257,0.705-0.392,1.055l0.287,0.624c0.17,0.382,0.168,0.792-0.003,1.165l-1.015,2.201
			c-0.258,0.569-0.869,0.953-1.561,0.999c-0.178,0.341-0.358,0.678-0.545,1.012l0.188,0.643c0.117,0.389,0.058,0.799-0.168,1.153
			l-1.331,2.077c-0.342,0.531-1.011,0.857-1.693,0.822c-0.226,0.313-0.455,0.627-0.689,0.939l0.097,0.661
			c0.058,0.399-0.062,0.8-0.338,1.128l-1.622,1.917c-0.412,0.489-1.115,0.738-1.811,0.63c-0.267,0.285-0.537,0.569-0.81,0.849
			l-0.003,0.677c0,0.404-0.178,0.79-0.502,1.086l-1.887,1.724c-0.481,0.445-1.226,0.608-1.895,0.43
			c-0.305,0.253-0.612,0.504-0.922,0.75l-0.101,0.68c-0.06,0.4-0.294,0.764-0.658,1.021l-2.122,1.508
			c-0.54,0.389-1.301,0.473-1.942,0.222c-0.338,0.22-0.679,0.435-1.022,0.647l-0.201,0.662c-0.117,0.396-0.406,0.733-0.811,0.949
			l-2.314,1.262c-0.593,0.327-1.359,0.329-1.958,0.015c-0.369,0.183-0.744,0.362-1.117,0.535l-0.292,0.627
			c-0.172,0.376-0.504,0.68-0.935,0.852l-2.489,1.005c-0.64,0.258-1.393,0.178-1.936-0.192c-0.396,0.14-0.796,0.279-1.197,0.413
			l-0.377,0.586c-0.226,0.352-0.595,0.614-1.042,0.742l-2.629,0.731c-0.668,0.187-1.404,0.027-1.891-0.397
			c-0.414,0.097-0.832,0.191-1.25,0.28l-0.458,0.54c-0.276,0.326-0.685,0.548-1.147,0.625l-2.707,0.444
			c-0.697,0.109-1.402-0.129-1.82-0.601c-0.427,0.051-0.852,0.1-1.277,0.143l-0.538,0.489c-0.327,0.297-0.765,0.472-1.229,0.497
			l-2.75,0.149c-0.806,0.034-1.394-0.305-1.722-0.797c-0.424,0.008-0.851,0.008-1.275,0.005l-0.613,0.433
			C425.599,185.507,425.187,185.634,424.758,185.634z M429.964,184.481c-0.002,0.002-0.004,0.003-0.006,0.005
			C429.96,184.485,429.962,184.483,429.964,184.481z M422.523,184.353c-0.012,0.01-0.027,0.02-0.039,0.028
			C422.499,184.373,422.511,184.363,422.523,184.353z M415.122,183.454c-0.017,0.008-0.035,0.018-0.054,0.028
			C415.086,183.474,415.105,183.464,415.122,183.454z M422.964,183.316l1.554,0.083l0.754-0.534
			c0.238-0.169,0.549-0.239,0.847-0.253c0.818,0.014,1.63,0.006,2.448-0.021l0.451-0.015c0.585-0.007,1.027,0.256,1.234,0.677
			c0.019,0.038,0.033,0.076,0.048,0.114l1.544-0.085l0.664-0.604c0.211-0.192,0.496-0.314,0.804-0.342
			c0.953-0.088,1.909-0.205,2.864-0.335c0.529-0.074,1.05,0.141,1.32,0.537c0.021,0.03,0.041,0.062,0.058,0.092l1.544-0.252
			l0.568-0.667c0.181-0.215,0.444-0.366,0.744-0.425c0.939-0.193,1.872-0.411,2.797-0.644c0.509-0.129,1.062,0.024,1.388,0.388
			c0.024,0.028,0.05,0.057,0.07,0.085l1.498-0.416l0.464-0.724c0.147-0.23,0.388-0.41,0.677-0.502
			c0.914-0.295,1.807-0.614,2.682-0.941c0.492-0.182,1.064-0.089,1.438,0.238c0.028,0.025,0.056,0.051,0.082,0.078l1.421-0.575
			l0.358-0.773c0.115-0.245,0.326-0.447,0.597-0.57c0.85-0.385,1.689-0.799,2.521-1.225c0.438-0.224,0.992-0.206,1.41,0.048
			c0.054,0.032,0.104,0.068,0.15,0.106l1.32-0.72l0.246-0.813c0.075-0.254,0.256-0.478,0.506-0.63
			c0.79-0.474,1.561-0.975,2.325-1.485c0.431-0.286,1.027-0.311,1.484-0.061c0.029,0.016,0.058,0.033,0.085,0.05l1.201-0.853
			l0.123-0.835c0.039-0.262,0.187-0.503,0.414-0.681c0.711-0.554,1.406-1.132,2.092-1.72c0.387-0.334,0.979-0.42,1.474-0.216
			c0.029,0.01,0.054,0.022,0.08,0.035l1.066-0.975l0.002-0.835c0-0.265,0.11-0.52,0.312-0.721c0.628-0.631,1.234-1.275,1.821-1.925
			c0.327-0.364,0.877-0.518,1.394-0.384c0.037,0.01,0.078,0.022,0.113,0.035l0.925-1.092l-0.119-0.817
			c-0.039-0.262,0.032-0.528,0.203-0.749c0.535-0.697,1.041-1.402,1.527-2.11c0.271-0.392,0.785-0.606,1.314-0.533
			c0.043,0.005,0.084,0.014,0.125,0.022l0.759-1.186l-0.234-0.794c-0.077-0.257-0.043-0.528,0.093-0.765
			c0.425-0.738,0.822-1.497,1.208-2.265c0.209-0.418,0.692-0.694,1.228-0.671c0.043,0.002,0.082,0.005,0.125,0.009l0.581-1.26
			l-0.355-0.766c-0.11-0.246-0.119-0.518-0.021-0.767c0.314-0.781,0.597-1.577,0.865-2.377c0.147-0.44,0.595-0.757,1.128-0.798
			c0.041-0.003,0.097-0.007,0.123-0.005l0.392-1.305l-0.468-0.735c-0.147-0.23-0.194-0.5-0.133-0.758
			c0.197-0.806,0.363-1.626,0.513-2.447c0.082-0.451,0.479-0.814,0.998-0.913c0.046-0.008,0.089-0.014,0.136-0.018l0.192-1.331
			l-0.571-0.679c-0.181-0.214-0.267-0.477-0.242-0.74c0.078-0.82,0.123-1.648,0.153-2.479c0.017-0.482,0.396-0.899,0.938-1.032
			c0.017-0.005,0.032-0.008,0.049-0.012v-1.344l-0.66-0.604c-0.211-0.193-0.332-0.444-0.347-0.709
			c-0.041-0.814-0.116-1.644-0.209-2.476c-0.049-0.455,0.229-0.89,0.705-1.095c0.037-0.017,0.072-0.031,0.111-0.043l-0.197-1.343
			l-0.734-0.523c-0.235-0.168-0.396-0.404-0.446-0.663c-0.164-0.81-0.361-1.625-0.574-2.442c-0.117-0.445,0.094-0.906,0.535-1.161
			c0.032-0.02,0.069-0.039,0.104-0.056l-0.394-1.311l-0.806-0.441c-0.259-0.142-0.451-0.358-0.542-0.611
			c-0.282-0.794-0.599-1.581-0.927-2.36c-0.182-0.432-0.034-0.917,0.371-1.217c0.029-0.022,0.06-0.042,0.089-0.062l-0.578-1.256
			l-0.878-0.356c-0.279-0.113-0.5-0.307-0.628-0.548c-0.392-0.75-0.817-1.496-1.261-2.236c-0.267-0.447-0.151-0.988,0.277-1.324
			l-0.757-1.178l-0.931-0.262c-0.291-0.083-0.542-0.252-0.701-0.477c-0.503-0.707-1.031-1.399-1.575-2.082
			c-0.312-0.395-0.297-0.915,0.037-1.294c0.017-0.017,0.03-0.034,0.047-0.049l-0.918-1.085l-0.962-0.158
			c-0.302-0.051-0.572-0.191-0.765-0.398c-0.605-0.651-1.23-1.279-1.864-1.894c-0.351-0.341-0.424-0.828-0.187-1.234
			c0.021-0.038,0.045-0.074,0.072-0.11l-1.07-0.977l-0.973-0.054c-0.308-0.017-0.597-0.127-0.817-0.312
			c-0.684-0.57-1.398-1.13-2.129-1.681c-0.403-0.303-0.545-0.788-0.358-1.22c0.014-0.033,0.03-0.065,0.047-0.097l-1.208-0.858
			l-0.961,0.051c-0.304,0.021-0.611-0.063-0.859-0.222c-0.763-0.494-1.555-0.973-2.358-1.442c-0.442-0.257-0.653-0.722-0.533-1.168
			c0.011-0.034,0.019-0.067,0.033-0.099l-1.326-0.724l-0.945,0.154c-0.306,0.049-0.617,0.003-0.884-0.128
			c-0.833-0.41-1.688-0.799-2.551-1.175c-0.474-0.207-0.753-0.643-0.701-1.096c0.004-0.036,0.01-0.071,0.019-0.105l-1.428-0.576
			l-0.912,0.253c-0.297,0.081-0.611,0.069-0.896-0.032c-0.893-0.319-1.797-0.612-2.703-0.89c-0.502-0.153-0.843-0.557-0.856-1.015
			c-0.003-0.035,0-0.071,0.002-0.106l-1.497-0.416l-0.878,0.352c-0.278,0.111-0.595,0.135-0.89,0.065
			c-0.923-0.218-1.866-0.411-2.817-0.591c-0.515-0.097-0.912-0.456-0.996-0.903c-0.009-0.042-0.015-0.083-0.017-0.125l-1.536-0.25
			l-0.83,0.45c-0.261,0.14-0.57,0.198-0.873,0.16c-0.611-0.076-1.225-0.148-1.842-0.207c-0.217-0.021-0.433-0.035-0.649-0.051
			l-0.38-0.026c-0.547-0.042-1.003-0.376-1.138-0.832c-0.009-0.029-0.015-0.055-0.021-0.083l-1.555-0.084l-0.754,0.534
			c-0.238,0.168-0.556,0.241-0.842,0.253c-0.964-0.015-1.932-0.002-2.891,0.026c-0.564,0.022-0.986-0.233-1.208-0.631
			c-0.029-0.048-0.051-0.098-0.07-0.15l-1.56,0.085l-0.665,0.604c-0.209,0.192-0.496,0.314-0.802,0.342
			c-0.955,0.089-1.913,0.206-2.868,0.335c-0.531,0.071-1.05-0.142-1.318-0.536c-0.021-0.03-0.039-0.062-0.058-0.093l-1.546,0.253
			l-0.566,0.666c-0.181,0.214-0.445,0.364-0.742,0.426c-0.947,0.194-1.88,0.413-2.799,0.644c-0.511,0.126-1.062-0.024-1.388-0.387
			c-0.024-0.028-0.049-0.057-0.07-0.086l-1.499,0.417l-0.464,0.721c-0.147,0.231-0.39,0.408-0.676,0.502
			c-0.911,0.296-1.805,0.613-2.686,0.941c-0.484,0.182-1.056,0.089-1.434-0.238c-0.028-0.025-0.055-0.05-0.08-0.077l-1.425,0.576
			l-0.356,0.771c-0.113,0.246-0.326,0.448-0.597,0.571c-0.845,0.383-1.686,0.795-2.52,1.224c-0.449,0.229-1.015,0.205-1.434-0.062
			c-0.045-0.028-0.086-0.059-0.127-0.092l-1.32,0.719l-0.244,0.814c-0.078,0.255-0.258,0.478-0.508,0.629
			c-0.788,0.475-1.561,0.974-2.323,1.484c-0.414,0.277-0.978,0.312-1.433,0.091c-0.047-0.023-0.092-0.049-0.135-0.077l-1.204,0.854
			l-0.123,0.831c-0.039,0.262-0.187,0.505-0.415,0.682c-0.711,0.554-1.406,1.133-2.091,1.721c-0.369,0.318-0.927,0.412-1.409,0.241
			c-0.049-0.016-0.098-0.038-0.146-0.06l-1.068,0.977v0.835c0,0.264-0.11,0.521-0.312,0.721c-0.629,0.63-1.234,1.274-1.823,1.926
			c-0.326,0.363-0.882,0.516-1.392,0.382c-0.039-0.011-0.076-0.021-0.113-0.035l-0.925,1.092l0.119,0.816
			c0.037,0.263-0.035,0.527-0.203,0.748c-0.535,0.696-1.042,1.403-1.53,2.112c-0.271,0.393-0.802,0.604-1.316,0.531
			c-0.041-0.006-0.082-0.013-0.119-0.022l-0.763,1.188l0.236,0.792c0.078,0.257,0.045,0.528-0.092,0.766
			c-0.424,0.737-0.822,1.495-1.206,2.263c-0.211,0.419-0.674,0.678-1.23,0.672c-0.041-0.001-0.082-0.004-0.123-0.009l-0.583,1.259
			l0.353,0.767c0.112,0.245,0.119,0.517,0.021,0.766c-0.312,0.781-0.595,1.578-0.863,2.377c-0.148,0.44-0.597,0.759-1.13,0.799
			c-0.041,0.003-0.084,0.006-0.123,0.004l-0.39,1.306l0.468,0.733c0.147,0.231,0.192,0.501,0.131,0.758
			c-0.195,0.808-0.361,1.625-0.508,2.449c-0.084,0.452-0.48,0.814-1,0.913c-0.045,0.009-0.09,0.015-0.133,0.019l-0.197,1.33
			l0.574,0.679c0.181,0.214,0.267,0.477,0.242,0.741c-0.078,0.82-0.125,1.647-0.154,2.479c-0.017,0.465-0.369,0.871-0.884,1.018
			c-0.035,0.009-0.068,0.018-0.101,0.025v1.344l0.658,0.603c0.211,0.193,0.334,0.445,0.347,0.709
			c0.043,0.823,0.119,1.652,0.209,2.48c0.049,0.455-0.229,0.89-0.705,1.096c-0.037,0.015-0.074,0.029-0.111,0.042l0.197,1.341
			l0.734,0.524c0.236,0.169,0.396,0.404,0.447,0.664c0.166,0.812,0.361,1.626,0.576,2.441c0.117,0.445-0.097,0.906-0.538,1.163
			c-0.033,0.019-0.069,0.038-0.104,0.055l0.392,1.311l0.808,0.441c0.258,0.142,0.451,0.357,0.542,0.611
			c0.285,0.794,0.599,1.581,0.929,2.359c0.183,0.432,0.037,0.914-0.365,1.214c-0.031,0.025-0.063,0.046-0.098,0.067l0.58,1.255
			l0.875,0.356c0.279,0.113,0.5,0.307,0.627,0.547c0.394,0.751,0.82,1.497,1.263,2.239c0.24,0.401,0.172,0.887-0.17,1.228
			c-0.033,0.034-0.069,0.066-0.106,0.095l0.754,1.178l0.933,0.262c0.291,0.082,0.539,0.25,0.699,0.476
			c0.504,0.708,1.036,1.4,1.577,2.083c0.306,0.386,0.297,0.895-0.021,1.274c-0.021,0.024-0.041,0.047-0.063,0.07l0.918,1.083
			l0.962,0.159c0.301,0.05,0.574,0.191,0.765,0.397c0.605,0.649,1.23,1.279,1.866,1.898c0.359,0.349,0.427,0.853,0.168,1.261
			c-0.017,0.027-0.035,0.054-0.056,0.081l1.068,0.977l0.974,0.055c0.308,0.017,0.599,0.127,0.818,0.312
			c0.683,0.57,1.398,1.13,2.128,1.68c0.404,0.306,0.547,0.793,0.357,1.226c-0.015,0.03-0.029,0.062-0.045,0.091l1.208,0.858
			l0.963-0.051c0.304-0.022,0.613,0.062,0.857,0.222c0.765,0.496,1.557,0.974,2.358,1.44c0.443,0.258,0.656,0.723,0.535,1.171
			c-0.01,0.033-0.021,0.067-0.033,0.099l1.327,0.723l0.945-0.152c0.304-0.047,0.615-0.003,0.88,0.127
			c0.834,0.411,1.689,0.799,2.553,1.177c0.476,0.207,0.756,0.645,0.701,1.102c-0.004,0.034-0.01,0.065-0.019,0.1l1.427,0.575
			l0.914-0.253c0.292-0.081,0.609-0.071,0.892,0.031c0.89,0.316,1.796,0.611,2.707,0.891c0.502,0.155,0.845,0.559,0.857,1.019
			c0,0.035,0,0.068-0.002,0.103l1.495,0.417l0.878-0.352c0.277-0.111,0.59-0.134,0.89-0.066c0.927,0.218,1.87,0.411,2.817,0.591
			c0.517,0.099,0.913,0.457,0.997,0.905c0.008,0.04,0.014,0.083,0.016,0.123l1.534,0.252l0.833-0.452
			c0.261-0.141,0.568-0.197,0.874-0.161c0.611,0.076,1.224,0.147,1.839,0.207c0.228,0.022,0.453,0.037,0.679,0.053l0.351,0.025
			c0.529,0.039,0.976,0.354,1.127,0.791C422.944,183.232,422.956,183.273,422.964,183.316z M416.985,182.858
			c-0.002,0.002-0.004,0.002-0.006,0.005L416.985,182.858z M438.929,182.578c-0.002,0.001-0.002,0.001-0.002,0.002L438.929,182.578z
			 M409.835,181.38c-0.002,0.001-0.006,0.001-0.008,0.004L409.835,181.38z M410.366,181.35l0.006,0.002
			C410.371,181.351,410.369,181.351,410.366,181.35z M407.75,180.621h0.004C407.752,180.621,407.752,180.621,407.75,180.621z
			 M452.82,178.504c-0.002,0.001-0.002,0.002-0.002,0.003L452.82,178.504z M453.189,178.167c-0.002,0.001-0.004,0.001-0.007,0.002
			L453.189,178.167z M400.996,178.164l0.008,0.004C401.002,178.166,401,178.166,400.996,178.164z M457.202,176.273
			c-0.002,0.002-0.005,0.002-0.007,0.004L457.202,176.273z M396.463,176.187c-0.002,0.001-0.002,0.001-0.004,0.001L396.463,176.187z
			 M459.211,175.381l-0.002,0.001L459.211,175.381z M459.527,175.006c-0.005,0.002-0.007,0.005-0.011,0.007L459.527,175.006z
			 M394.663,175.004l0.004,0.001C394.665,175.006,394.665,175.006,394.663,175.004z M463.232,172.694
			c-0.002,0.001-0.007,0.005-0.011,0.007L463.232,172.694z M390.953,172.688l0.01,0.007
			C390.959,172.692,390.958,172.689,390.953,172.688z M465.092,171.593c0,0.001,0,0.002,0,0.003V171.593z M468.692,168.498
			c0,0-0.002,0.001-0.002,0.003L468.692,168.498z M385.497,168.495l0.002,0.003C385.499,168.496,385.499,168.496,385.497,168.495z
			 M385.009,168.3h0.002H385.009z M380.691,163.737l0.006,0.008C380.695,163.743,380.693,163.739,380.691,163.737z M374.445,157.352
			c0.027,0.009,0.054,0.016,0.08,0.02C374.499,157.366,374.472,157.36,374.445,157.352z M373.344,152.877l0.002,0.006
			C373.347,152.88,373.344,152.879,373.344,152.877z M484.025,145.114c0.002,0.002,0.004,0.002,0.004,0.002L484.025,145.114z
			 M486.137,140.494c0.005,0.006,0.011,0.013,0.015,0.019C486.147,140.506,486.142,140.5,486.137,140.494z M369.112,140.387
			l0.004,0.002C369.114,140.388,369.114,140.387,369.112,140.387z M485.651,132.592h0.012H485.651z M485.647,132.59
			c0.002,0.001,0.002,0.001,0.002,0.001l0,0L485.647,132.59z M485.206,128.354v0.002
			C485.206,128.356,485.206,128.354,485.206,128.354z M485.077,126.296c0.002,0.003,0.006,0.005,0.008,0.007L485.077,126.296z
			 M368.042,126.173c0.004,0.006,0.01,0.012,0.015,0.02C368.052,126.185,368.046,126.179,368.042,126.173z M370.164,121.568
			l0.002,0.002L370.164,121.568z M483.274,119.738c0.002,0.003,0.002,0.006,0.002,0.008L483.274,119.738z M480.847,113.802
			c0,0.001,0.003,0.002,0.003,0.002L480.847,113.802z M478.985,110.343c0,0,0,0,0.002,0.001
			C478.985,110.343,478.985,110.343,478.985,110.343z M477.57,108.172c0,0.001,0,0.002,0.002,0.004L477.57,108.172z
			 M376.627,108.169l-0.002,0.003C376.625,108.171,376.625,108.171,376.627,108.169z M379.213,104.405v0.001
			C379.213,104.405,379.213,104.405,379.213,104.405z M473.951,103.189c0.002,0,0.002,0,0.002,0L473.951,103.189z M469.183,98.386
			L469.183,98.386L469.183,98.386z M468.692,98.188c0,0,0.004,0.003,0.008,0.006L468.692,98.188z M384.226,97.79
			c-0.002,0.022,0,0.045,0.004,0.069C384.228,97.835,384.226,97.813,384.226,97.79z M388.846,95.492l-0.006,0.006
			C388.841,95.496,388.846,95.494,388.846,95.492z M463.768,94.132l-0.025,0.001C463.751,94.133,463.759,94.133,463.768,94.132z
			 M463.23,93.991c0.004,0.001,0.006,0.003,0.006,0.004L463.23,93.991z M389.758,93.46c-0.004,0.022-0.008,0.045-0.008,0.07
			C389.752,93.507,389.754,93.482,389.758,93.46z M394.668,91.677l-0.002,0.001C394.667,91.677,394.668,91.677,394.668,91.677z
			 M394.984,91.302v0.002C394.984,91.304,394.984,91.304,394.984,91.302z M457.202,90.411c0,0.002,0.002,0.002,0.002,0.002
			L457.202,90.411z M395.874,89.756c-0.008,0.022-0.014,0.046-0.018,0.071C395.862,89.803,395.866,89.78,395.874,89.756z
			 M453.189,88.519l0.004,0.001L453.189,88.519z M401.015,88.515l-0.01,0.004C401.006,88.517,401.011,88.515,401.015,88.515z
			 M450.696,87.511c0.002,0.001,0.002,0.001,0.004,0.002L450.696,87.511z M408.172,85.765l-0.004,0.005
			C408.17,85.769,408.172,85.766,408.172,85.765z M443.818,85.334c0.005,0.002,0.011,0.002,0.015,0.004L443.818,85.334z
			 M444.362,85.305l-0.004,0C444.358,85.305,444.36,85.305,444.362,85.305z M415.265,84.105l-0.002,0.002
			C415.265,84.107,415.265,84.106,415.265,84.105z M429.386,83.27c0.005,0,0.007,0,0.011,0L429.386,83.27z M424.83,83.269
			l-0.027,0.001C424.812,83.27,424.82,83.27,424.83,83.269z M439.123,83.203c-0.014,0.008-0.03,0.016-0.045,0.026
			C439.095,83.22,439.109,83.212,439.123,83.203z M422.548,83.221l-0.002,0.001C422.548,83.222,422.548,83.221,422.548,83.221z
			 M427.128,172.741c-1.386,0-2.792-0.055-4.179-0.162c-12.188-0.951-23.229-5.929-31.086-14.021
			c-7.857-8.09-11.577-18.309-10.472-28.772c2.125-20.098,22.186-35.841,45.671-35.841c1.386,0,2.792,0.055,4.181,0.163
			c25.199,1.963,43.842,21.161,41.555,42.795C470.677,156.998,450.616,172.741,427.128,172.741z M427.063,96.163
			c-22.161,0-41.09,14.856-43.095,33.823c-1.044,9.873,2.466,19.515,9.883,27.15c7.414,7.637,17.832,12.336,29.335,13.231
			c1.308,0.104,2.635,0.155,3.943,0.155c22.165,0,41.094-14.856,43.095-33.82l0,0c2.159-20.416-15.436-38.531-39.216-40.384
			C429.7,96.214,428.373,96.163,427.063,96.163z"/>
		<g>
			<path d="M427.098,173.915c-26.061,0-47.262-18.202-47.262-40.573c0-22.37,21.201-40.571,47.262-40.571
				c26.059,0,47.26,18.201,47.26,40.571C474.357,155.713,453.156,173.915,427.098,173.915z M427.098,94.991
				c-24.636,0-44.676,17.204-44.676,38.352c0,21.147,20.041,38.352,44.676,38.352c24.634,0,44.674-17.205,44.674-38.352
				C471.771,112.195,451.731,94.991,427.098,94.991z M427.116,171.283c-0.299,0-0.597-0.004-0.898-0.007
				c-11.786-0.201-22.786-4.34-30.974-11.655c-8.189-7.315-12.569-16.916-12.335-27.033c0.236-10.117,5.056-19.56,13.578-26.59
				c8.521-7.029,19.694-10.785,31.488-10.587c11.785,0.2,22.786,4.34,30.974,11.655c8.188,7.315,12.568,16.915,12.335,27.031
				c-0.236,10.117-5.057,19.561-13.578,26.59C449.402,167.537,438.569,171.282,427.116,171.283z M427.077,97.622
				c-10.783,0-20.979,3.527-28.798,9.977c-8.023,6.619-12.563,15.508-12.784,25.034c-0.222,9.523,3.904,18.562,11.613,25.45
				c7.71,6.887,18.066,10.785,29.161,10.974l0,0c11.095,0.194,21.621-3.352,29.646-9.969c8.023-6.619,12.563-15.51,12.782-25.034
				c0.222-9.524-3.903-18.563-11.613-25.45c-7.71-6.886-18.066-10.785-29.161-10.973C427.641,97.624,427.358,97.622,427.077,97.622z
				"/>
		</g>
		<path d="M427.098,167.191c-21.742,0-39.431-15.185-39.431-33.849c0-18.665,17.689-33.85,39.431-33.85
			c21.74,0,39.43,15.185,39.43,33.85C466.527,152.006,448.838,167.191,427.098,167.191z M427.098,101.712
			c-20.317,0-36.846,14.19-36.846,31.63s16.528,31.63,36.846,31.63c20.315,0,36.844-14.19,36.844-31.63
			S447.413,101.712,427.098,101.712z"/>
		<path d="M424.127,165.82c-0.043,0-0.086-0.002-0.131-0.005l-0.72-0.063c-13.598-1.174-25.46-8.609-30.957-19.403l-0.289-0.566
			c-0.148-0.29-0.146-0.619,0.008-0.906c0.151-0.288,0.438-0.506,0.789-0.599l15.003-4.016c1.618-0.432,3.228-0.652,4.784-0.652
			c7.332,0,12.52,4.73,12.614,11.503c0.088,6.422,0.164,11.771,0.181,12.963l0.01,0.62c0.006,0.316-0.147,0.62-0.418,0.833
			C424.76,165.716,424.449,165.82,424.127,165.82z M394.984,146.024c5.143,9.567,15.7,16.185,27.83,17.45
			c-0.029-1.907-0.094-6.709-0.172-12.337c-0.076-5.48-4.199-9.31-10.028-9.31c-1.298,0-2.647,0.186-4.015,0.551L394.984,146.024z"
			/>
		<path d="M422.814,164.584c-0.051,0-0.104-0.003-0.156-0.009c-12.497-1.303-23.551-8.232-28.849-18.085
			c-0.158-0.29-0.16-0.624-0.008-0.915c0.152-0.292,0.441-0.515,0.795-0.609l13.619-3.646c1.49-0.399,2.971-0.602,4.398-0.602
			c6.684,0,11.234,4.182,11.322,10.406l0.17,12.336c0.004,0.32-0.152,0.625-0.429,0.839
			C423.44,164.484,423.13,164.584,422.814,164.584z M396.805,146.7c4.915,8.174,14.172,13.981,24.699,15.491l-0.154-11.04
			c-0.07-4.989-3.5-8.212-8.737-8.212c-1.165,0-2.387,0.168-3.629,0.501L396.805,146.7z"/>
		<path d="M430.066,165.819c-0.321,0-0.633-0.103-0.873-0.292c-0.271-0.212-0.422-0.516-0.418-0.832l0.189-13.584
			c0.094-6.772,5.281-11.503,12.614-11.503c1.558,0,3.168,0.22,4.783,0.652l15.005,4.016c0.351,0.093,0.64,0.311,0.791,0.599
			c0.154,0.287,0.156,0.616,0.009,0.906l-0.289,0.568c-5.499,10.794-17.361,18.229-30.961,19.401l-0.72,0.063
			C430.153,165.817,430.109,165.819,430.066,165.819z M441.578,141.828c-5.828,0-9.951,3.829-10.029,9.311l-0.172,12.336
			c12.13-1.264,22.689-7.883,27.834-17.45l-13.618-3.645C444.225,142.014,442.874,141.828,441.578,141.828z"/>
		<path d="M431.377,164.584c-0.315,0-0.623-0.1-0.863-0.284c-0.276-0.212-0.433-0.519-0.429-0.838l0.173-12.336
			c0.086-6.225,4.636-10.407,11.32-10.407c1.427,0,2.907,0.202,4.399,0.602l13.619,3.646c0.354,0.094,0.646,0.317,0.798,0.609
			c0.149,0.291,0.147,0.625-0.009,0.915c-5.3,9.854-16.355,16.784-28.853,18.086C431.481,164.581,431.431,164.584,431.377,164.584z
			 M441.578,142.938c-5.237,0-8.668,3.223-8.735,8.213l-0.155,11.039c10.526-1.509,19.786-7.316,24.701-15.491l-12.18-3.26
			C443.965,143.107,442.744,142.938,441.578,142.938z"/>
		<path d="M391.394,141.585c-0.224,0-0.445-0.049-0.642-0.146c-0.32-0.157-0.547-0.424-0.624-0.734l-0.151-0.61
			c-0.546-2.22-0.825-4.492-0.825-6.752c0-9.271,4.646-18.139,12.748-24.33l0.539-0.412c0.275-0.209,0.646-0.308,1.005-0.274
			c0.367,0.037,0.697,0.204,0.91,0.461l8.967,10.866c2.739,3.32,3.551,6.993,2.282,10.341c-1.267,3.35-4.437,5.913-8.927,7.216
			l-14.868,4.316C391.673,141.566,391.534,141.585,391.394,141.585z M403.085,111.088c-7.222,5.748-11.347,13.822-11.347,22.254
			c0,1.899,0.211,3.807,0.625,5.68l13.484-3.915c3.699-1.074,6.288-3.134,7.297-5.799c1.011-2.666,0.324-5.639-1.933-8.373
			L403.085,111.088z"/>
		<path d="M392.364,140.131c-0.226,0-0.451-0.051-0.652-0.151c-0.322-0.162-0.547-0.436-0.617-0.75
			c-0.431-1.94-0.648-3.92-0.648-5.888c0-8.711,4.286-17.119,11.759-23.068c0.272-0.218,0.631-0.319,1.013-0.29
			c0.371,0.032,0.706,0.202,0.923,0.462l8.124,9.848c2.498,3.027,3.248,6.351,2.11,9.358c-1.14,3.008-4.021,5.319-8.113,6.507
			l-13.483,3.915C392.643,140.112,392.503,140.131,392.364,140.131z M402.901,112.785c-6.291,5.463-9.869,12.884-9.869,20.558
			c0,1.404,0.119,2.815,0.355,4.211l12.046-3.497c3.301-0.958,5.602-2.767,6.481-5.091c0.879-2.325,0.256-4.948-1.759-7.389
			L402.901,112.785z"/>
		<path d="M462.802,141.585c-0.14,0-0.279-0.02-0.414-0.059l-14.87-4.316c-4.49-1.303-7.66-3.867-8.93-7.216
			c-1.267-3.349-0.455-7.021,2.282-10.341l8.967-10.866c0.213-0.257,0.543-0.424,0.908-0.461c0.365-0.036,0.729,0.064,1.007,0.274
			l0.541,0.413c8.102,6.191,12.748,15.059,12.748,24.33c0,2.263-0.277,4.535-0.825,6.752l-0.149,0.61
			c-0.078,0.31-0.306,0.578-0.625,0.734C463.244,141.536,463.022,141.585,462.802,141.585z M451.108,111.088l-8.126,9.848
			c-2.258,2.734-2.944,5.707-1.936,8.374c1.011,2.665,3.603,4.725,7.299,5.798l13.484,3.915c0.416-1.872,0.625-3.779,0.625-5.68
			C462.455,124.91,458.327,116.835,451.108,111.088z"/>
		<path d="M461.83,140.131c-0.138,0-0.279-0.02-0.415-0.058l-13.483-3.915c-4.095-1.188-6.976-3.5-8.113-6.507
			s-0.39-6.33,2.108-9.357l8.125-9.848c0.218-0.26,0.552-0.43,0.923-0.462c0.38-0.029,0.74,0.072,1.011,0.29
			c7.476,5.95,11.764,14.356,11.764,23.068c0,1.97-0.22,3.95-0.648,5.888c-0.069,0.315-0.295,0.589-0.619,0.75
			C462.283,140.08,462.058,140.131,461.83,140.131z M451.293,112.785l-7.257,8.792c-2.014,2.44-2.639,5.064-1.759,7.387
			c0.879,2.326,3.182,4.133,6.483,5.092l12.046,3.497c0.235-1.395,0.356-2.806,0.356-4.211
			C461.163,125.668,457.581,118.248,451.293,112.785z"/>
		<path d="M427.098,140.928c-4.874,0-8.837-3.403-8.837-7.586c0-4.182,3.963-7.584,8.837-7.584c4.872,0,8.833,3.402,8.833,7.584
			C435.931,137.525,431.97,140.928,427.098,140.928z M427.098,127.978c-3.449,0-6.251,2.407-6.251,5.364
			c0,2.959,2.803,5.366,6.251,5.366c3.445,0,6.248-2.407,6.248-5.366C433.346,130.385,430.543,127.978,427.098,127.978z"/>
		<path d="M427.098,139.818c-4.16,0-7.545-2.905-7.545-6.476c0-3.57,3.385-6.474,7.545-6.474c4.158,0,7.541,2.904,7.541,6.474
			C434.639,136.913,431.256,139.818,427.098,139.818z M427.098,129.087c-2.735,0-4.958,1.908-4.958,4.255
			c0,2.347,2.223,4.256,4.958,4.256c2.731,0,4.956-1.909,4.956-4.256C432.054,130.996,429.829,129.087,427.098,129.087z"/>
		<path d="M427.098,122.829L427.098,122.829c-4.105,0-7.923-1.799-10.754-5.061l-9.257-10.67c-0.222-0.253-0.304-0.576-0.229-0.885
			c0.074-0.31,0.299-0.578,0.617-0.736l0.627-0.313c5.762-2.875,12.332-4.395,18.997-4.395c6.662,0,13.231,1.52,18.995,4.394
			l0.625,0.312c0.32,0.159,0.544,0.426,0.619,0.736c0.074,0.311-0.01,0.633-0.229,0.886l-9.26,10.671
			C435.017,121.031,431.198,122.829,427.098,122.829z M410.03,106.775l8.386,9.667c2.333,2.687,5.415,4.167,8.681,4.167
			c3.265,0,6.346-1.48,8.678-4.167l8.388-9.667c-5.216-2.48-11.101-3.787-17.065-3.787
			C421.131,102.988,415.244,104.296,410.03,106.775z"/>
		<path d="M427.098,121.719c-3.685,0-7.135-1.639-9.717-4.615l-8.388-9.667c-0.224-0.256-0.306-0.583-0.228-0.897
			c0.078-0.313,0.312-0.581,0.638-0.736c5.405-2.568,11.523-3.925,17.695-3.925c6.172,0,12.288,1.356,17.691,3.924
			c0.325,0.155,0.56,0.423,0.638,0.736c0.077,0.313-0.005,0.64-0.228,0.897l-8.387,9.668
			C434.229,120.08,430.78,121.719,427.098,121.719z M411.97,107.153l7.484,8.625c2.081,2.4,4.796,3.72,7.644,3.72
			c2.844,0,5.559-1.32,7.64-3.72l7.484-8.626C432.847,103.148,421.346,103.15,411.97,107.153z"/>
		<g>
			<g>
				<path d="M421.504,163.3c-0.072,0-0.142-0.004-0.213-0.014c-10.951-1.563-20.533-7.573-25.636-16.078
					c-0.174-0.292-0.19-0.635-0.043-0.938c0.147-0.303,0.445-0.533,0.808-0.63l7.806-2.09c0.576-0.154,1.197,0.054,1.501,0.499
					c3.473,5.097,9.29,8.753,15.96,10.029c0.587,0.112,1.003,0.554,1.011,1.07l0.098,7.029c0.006,0.329-0.16,0.642-0.451,0.856
					C422.109,163.208,421.81,163.3,421.504,163.3z M398.693,147.357c4.624,6.881,12.489,11.817,21.499,13.489l-0.067-4.81
					c-6.617-1.498-12.395-5.126-16.092-10.108L398.693,147.357z"/>
				<path d="M416.846,113.883c-0.397,0-0.785-0.159-1.035-0.447l-4.878-5.619c-0.228-0.263-0.31-0.602-0.222-0.921
					c0.09-0.32,0.34-0.588,0.683-0.736c4.855-2.074,10.285-3.172,15.704-3.172c5.417,0,10.847,1.097,15.7,3.171
					c0.345,0.146,0.595,0.416,0.683,0.734c0.088,0.321,0.006,0.658-0.222,0.921l-4.878,5.621c-0.356,0.413-0.994,0.558-1.544,0.358
					c-6.186-2.273-13.299-2.271-19.482,0C417.19,113.854,417.018,113.883,416.846,113.883z M413.953,107.582l3.334,3.841
					c6.268-2.071,13.348-2.073,19.621,0l3.332-3.841C431.984,104.471,422.214,104.469,413.953,107.582z"/>
				<path d="M393.387,138.664c-0.236,0-0.47-0.056-0.677-0.164c-0.326-0.172-0.547-0.46-0.603-0.786
					c-0.244-1.446-0.369-2.917-0.369-4.371c0-7.91,3.733-15.688,10.244-21.337c0.269-0.234,0.65-0.354,1.025-0.325
					c0.379,0.026,0.728,0.196,0.949,0.463l4.724,5.726c0.346,0.421,0.31,0.992-0.088,1.378c-4.039,3.906-6.262,8.911-6.262,14.096
					c0,0.666,0.055,1.315,0.108,1.861c0.051,0.509-0.31,0.982-0.873,1.146l-7.765,2.254
					C393.666,138.644,393.526,138.664,393.387,138.664z M402.759,114.532c-5.378,5.14-8.435,11.921-8.435,18.81
					c0,0.904,0.051,1.817,0.156,2.722l5.309-1.541c-0.027-0.374-0.043-0.77-0.043-1.18c0-5.435,2.208-10.691,6.242-14.896
					L402.759,114.532z"/>
				<path d="M432.688,163.302c-0.306,0-0.605-0.094-0.841-0.268c-0.291-0.214-0.455-0.527-0.451-0.856l0.099-7.03
					c0.008-0.514,0.426-0.957,1.011-1.069c6.67-1.277,12.486-4.933,15.962-10.028c0.304-0.447,0.925-0.653,1.501-0.499l7.806,2.089
					c0.365,0.097,0.66,0.327,0.809,0.63c0.146,0.303,0.131,0.646-0.043,0.938c-5.104,8.506-14.688,14.516-25.639,16.078
					C432.829,163.297,432.759,163.302,432.688,163.302z M434.067,156.036l-0.068,4.811c9.01-1.671,16.877-6.608,21.499-13.49
					l-5.337-1.429C446.462,150.909,440.684,154.539,434.067,156.036z"/>
				<path d="M460.807,138.664c-0.14,0-0.279-0.02-0.414-0.059l-7.766-2.254c-0.565-0.164-0.927-0.637-0.873-1.148
					c0.076-0.748,0.108-1.322,0.108-1.859c0-5.187-2.225-10.192-6.262-14.096c-0.399-0.386-0.437-0.957-0.09-1.378l4.724-5.726
					c0.222-0.268,0.57-0.438,0.951-0.463c0.373-0.028,0.755,0.091,1.025,0.325c6.51,5.65,10.244,13.427,10.244,21.337
					c0,1.458-0.123,2.929-0.369,4.371c-0.056,0.326-0.277,0.614-0.603,0.786C461.276,138.608,461.042,138.664,460.807,138.664z
					 M454.405,134.523l5.311,1.542c0.103-0.906,0.153-1.817,0.153-2.723c0-6.889-3.057-13.67-8.436-18.81l-3.229,3.913
					c4.033,4.207,6.243,9.461,6.243,14.898C454.448,133.714,454.434,134.096,454.405,134.523z"/>
			</g>
			<path d="M427.098,142.038c-5.587,0-10.129-3.9-10.129-8.695c0-4.794,4.542-8.694,10.129-8.694c5.583,0,10.127,3.9,10.127,8.694
				C437.225,138.137,432.681,142.038,427.098,142.038z M427.098,126.868c-4.16,0-7.545,2.904-7.545,6.474
				c0,3.571,3.385,6.476,7.545,6.476c4.158,0,7.541-2.905,7.541-6.476C434.639,129.772,431.256,126.868,427.098,126.868z
				 M427.098,138.708c-3.449,0-6.251-2.407-6.251-5.366c0-2.957,2.803-5.364,6.251-5.364c3.445,0,6.248,2.407,6.248,5.364
				C433.346,136.301,430.543,138.708,427.098,138.708z M427.098,130.198c-2.021,0-3.666,1.411-3.666,3.145
				c0,1.734,1.645,3.146,3.666,3.146c2.02,0,3.662-1.412,3.662-3.146C430.76,131.609,429.117,130.198,427.098,130.198z"/>
		</g>
	</g>
</g>
</svg>
