<?xml version="1.0" encoding="utf-8"?>
<!-- Generator: Adobe Illustrator 16.0.0, SVG Export Plug-In . SVG Version: 6.00 Build 0)  -->
<!DOCTYPE svg PUBLIC "-//W3C//DTD SVG 1.1//EN" "http://www.w3.org/Graphics/SVG/1.1/DTD/svg11.dtd">
<svg version="1.1" id="Layer_1" xmlns="http://www.w3.org/2000/svg" xmlns:xlink="http://www.w3.org/1999/xlink" x="0px" y="0px"
	 width="857px" height="397px" viewBox="0 0 857 397" enable-background="new 0 0 857 397" xml:space="preserve">
<g>
	<g>
		<path fill="#FCFCFC" d="M194.987,196.603h-0.982c-1.084,0-1.964-0.816-1.964-1.824c0-1.008,0.879-1.825,1.964-1.825h0.982
			c1.084,0,1.964,0.817,1.964,1.825C196.951,195.786,196.072,196.603,194.987,196.603z"/>
		<path fill="#FCFCFC" d="M663.01,196.603h-1.947c-1.087,0-1.966-0.816-1.966-1.824c0-1.008,0.879-1.825,1.966-1.825h1.947
			c1.085,0,1.964,0.817,1.964,1.825C664.974,195.786,664.095,196.603,663.01,196.603z M651.311,196.603h-1.95
			c-1.086,0-1.964-0.816-1.964-1.824c0-1.008,0.878-1.825,1.964-1.825h1.95c1.086,0,1.964,0.817,1.964,1.825
			C653.273,195.786,652.396,196.603,651.311,196.603z M639.609,196.603h-1.951c-1.085,0-1.963-0.816-1.963-1.824
			c0-1.008,0.878-1.825,1.963-1.825h1.951c1.085,0,1.964,0.817,1.964,1.825C641.573,195.786,640.694,196.603,639.609,196.603z
			 M627.908,196.603h-1.95c-1.086,0-1.965-0.816-1.965-1.824c0-1.008,0.879-1.825,1.965-1.825h1.95c1.085,0,1.964,0.817,1.964,1.825
			C629.872,195.786,628.993,196.603,627.908,196.603z M616.207,196.603h-1.948c-1.086,0-1.964-0.816-1.964-1.824
			c0-1.008,0.878-1.825,1.964-1.825h1.948c1.086,0,1.965,0.817,1.965,1.825C618.172,195.786,617.293,196.603,616.207,196.603z
			 M604.509,196.603h-1.952c-1.085,0-1.963-0.816-1.963-1.824c0-1.008,0.878-1.825,1.963-1.825h1.952
			c1.085,0,1.963,0.817,1.963,1.825C606.472,195.786,605.594,196.603,604.509,196.603z M592.807,196.603h-1.949
			c-1.086,0-1.966-0.816-1.966-1.824c0-1.008,0.88-1.825,1.966-1.825h1.949c1.085,0,1.965,0.817,1.965,1.825
			C594.771,195.786,593.892,196.603,592.807,196.603z M581.105,196.603h-1.948c-1.086,0-1.964-0.816-1.964-1.824
			c0-1.008,0.878-1.825,1.964-1.825h1.948c1.086,0,1.965,0.817,1.965,1.825C583.07,195.786,582.191,196.603,581.105,196.603z
			 M569.406,196.603h-1.95c-1.085,0-1.964-0.816-1.964-1.824c0-1.008,0.879-1.825,1.964-1.825h1.95c1.086,0,1.965,0.817,1.965,1.825
			C571.371,195.786,570.492,196.603,569.406,196.603z M557.705,196.603h-1.95c-1.086,0-1.964-0.816-1.964-1.824
			c0-1.008,0.878-1.825,1.964-1.825h1.95c1.085,0,1.964,0.817,1.964,1.825C559.669,195.786,558.79,196.603,557.705,196.603z
			 M546.004,196.603h-1.95c-1.085,0-1.964-0.816-1.964-1.824c0-1.008,0.879-1.825,1.964-1.825h1.95c1.086,0,1.965,0.817,1.965,1.825
			C547.969,195.786,547.09,196.603,546.004,196.603z M534.304,196.603h-1.948c-1.086,0-1.965-0.816-1.965-1.824
			c0-1.008,0.88-1.825,1.965-1.825h1.948c1.085,0,1.964,0.817,1.964,1.825C536.268,195.786,535.389,196.603,534.304,196.603z
			 M522.604,196.603h-1.949c-1.086,0-1.965-0.816-1.965-1.824c0-1.008,0.879-1.825,1.965-1.825h1.949
			c1.086,0,1.964,0.817,1.964,1.825C524.567,195.786,523.689,196.603,522.604,196.603z M510.902,196.603h-1.95
			c-1.086,0-1.964-0.816-1.964-1.824c0-1.008,0.878-1.825,1.964-1.825h1.95c1.086,0,1.964,0.817,1.964,1.825
			C512.866,195.786,511.988,196.603,510.902,196.603z M499.202,196.603h-1.951c-1.085,0-1.964-0.816-1.964-1.824
			c0-1.008,0.879-1.825,1.964-1.825h1.951c1.085,0,1.964,0.817,1.964,1.825C501.166,195.786,500.287,196.603,499.202,196.603z
			 M487.503,196.603h-1.95c-1.086,0-1.965-0.816-1.965-1.824c0-1.008,0.879-1.825,1.965-1.825h1.95c1.085,0,1.964,0.817,1.964,1.825
			C489.467,195.786,488.588,196.603,487.503,196.603z M475.802,196.603h-1.951c-1.086,0-1.963-0.816-1.963-1.824
			c0-1.008,0.877-1.825,1.963-1.825h1.951c1.086,0,1.963,0.817,1.963,1.825C477.765,195.786,476.888,196.603,475.802,196.603z
			 M464.101,196.603h-1.95c-1.085,0-1.965-0.816-1.965-1.824c0-1.008,0.88-1.825,1.965-1.825h1.95c1.085,0,1.965,0.817,1.965,1.825
			C466.064,195.786,465.186,196.603,464.101,196.603z M452.399,196.603h-1.948c-1.086,0-1.965-0.816-1.965-1.824
			c0-1.008,0.879-1.825,1.965-1.825h1.948c1.085,0,1.964,0.817,1.964,1.825C454.363,195.786,453.484,196.603,452.399,196.603z
			 M440.7,196.603h-1.95c-1.086,0-1.964-0.816-1.964-1.824c0-1.008,0.878-1.825,1.964-1.825h1.95c1.086,0,1.963,0.817,1.963,1.825
			C442.663,195.786,441.786,196.603,440.7,196.603z M428.998,196.603h-1.95c-1.085,0-1.963-0.816-1.963-1.824
			c0-1.008,0.878-1.825,1.963-1.825h1.95c1.086,0,1.965,0.817,1.965,1.825C430.963,195.786,430.084,196.603,428.998,196.603z
			 M417.298,196.603h-1.95c-1.086,0-1.964-0.816-1.964-1.824c0-1.008,0.878-1.825,1.964-1.825h1.95c1.085,0,1.964,0.817,1.964,1.825
			C419.262,195.786,418.383,196.603,417.298,196.603z M405.599,196.603h-1.949c-1.087,0-1.965-0.816-1.965-1.824
			c0-1.008,0.878-1.825,1.965-1.825h1.949c1.086,0,1.964,0.817,1.964,1.825C407.563,195.786,406.685,196.603,405.599,196.603z
			 M393.897,196.603h-1.95c-1.086,0-1.964-0.816-1.964-1.824c0-1.008,0.878-1.825,1.964-1.825h1.95c1.085,0,1.964,0.817,1.964,1.825
			C395.862,195.786,394.983,196.603,393.897,196.603z M382.197,196.603h-1.951c-1.085,0-1.963-0.816-1.963-1.824
			c0-1.008,0.878-1.825,1.963-1.825h1.951c1.085,0,1.963,0.817,1.963,1.825C384.16,195.786,383.282,196.603,382.197,196.603z
			 M370.495,196.603h-1.948c-1.085,0-1.964-0.816-1.964-1.824c0-1.008,0.878-1.825,1.964-1.825h1.948
			c1.086,0,1.964,0.817,1.964,1.825C372.459,195.786,371.581,196.603,370.495,196.603z M358.796,196.603h-1.951
			c-1.086,0-1.964-0.816-1.964-1.824c0-1.008,0.878-1.825,1.964-1.825h1.951c1.085,0,1.964,0.817,1.964,1.825
			C360.76,195.786,359.882,196.603,358.796,196.603z M347.095,196.603h-1.951c-1.085,0-1.964-0.816-1.964-1.824
			c0-1.008,0.878-1.825,1.964-1.825h1.951c1.085,0,1.964,0.817,1.964,1.825C349.059,195.786,348.181,196.603,347.095,196.603z
			 M335.394,196.603h-1.951c-1.085,0-1.964-0.816-1.964-1.824c0-1.008,0.878-1.825,1.964-1.825h1.951
			c1.086,0,1.964,0.817,1.964,1.825C337.358,195.786,336.48,196.603,335.394,196.603z M323.693,196.603h-1.949
			c-1.085,0-1.964-0.816-1.964-1.824c0-1.008,0.878-1.825,1.964-1.825h1.949c1.085,0,1.964,0.817,1.964,1.825
			C325.657,195.786,324.778,196.603,323.693,196.603z M311.994,196.603h-1.951c-1.085,0-1.964-0.816-1.964-1.824
			c0-1.008,0.878-1.825,1.964-1.825h1.951c1.085,0,1.963,0.817,1.963,1.825C313.958,195.786,313.08,196.603,311.994,196.603z
			 M300.292,196.603h-1.95c-1.085,0-1.964-0.816-1.964-1.824c0-1.008,0.879-1.825,1.964-1.825h1.95c1.085,0,1.964,0.817,1.964,1.825
			C302.256,195.786,301.378,196.603,300.292,196.603z M288.591,196.603h-1.949c-1.085,0-1.963-0.816-1.963-1.824
			c0-1.008,0.878-1.825,1.963-1.825h1.949c1.085,0,1.964,0.817,1.964,1.825C290.556,195.786,289.677,196.603,288.591,196.603z
			 M276.892,196.603h-1.951c-1.085,0-1.964-0.816-1.964-1.824c0-1.008,0.879-1.825,1.964-1.825h1.951
			c1.086,0,1.964,0.817,1.964,1.825C278.856,195.786,277.978,196.603,276.892,196.603z M265.191,196.603h-1.95
			c-1.085,0-1.964-0.816-1.964-1.824c0-1.008,0.878-1.825,1.964-1.825h1.95c1.085,0,1.964,0.817,1.964,1.825
			C267.155,195.786,266.276,196.603,265.191,196.603z M253.49,196.603h-1.951c-1.086,0-1.964-0.816-1.964-1.824
			c0-1.008,0.878-1.825,1.964-1.825h1.951c1.085,0,1.964,0.817,1.964,1.825C255.454,195.786,254.576,196.603,253.49,196.603z
			 M241.789,196.603h-1.949c-1.085,0-1.964-0.816-1.964-1.824c0-1.008,0.879-1.825,1.964-1.825h1.949
			c1.085,0,1.964,0.817,1.964,1.825C243.753,195.786,242.875,196.603,241.789,196.603z M230.09,196.603h-1.951
			c-1.085,0-1.964-0.816-1.964-1.824c0-1.008,0.878-1.825,1.964-1.825h1.951c1.085,0,1.964,0.817,1.964,1.825
			C232.054,195.786,231.175,196.603,230.09,196.603z M218.389,196.603h-1.95c-1.086,0-1.964-0.816-1.964-1.824
			c0-1.008,0.878-1.825,1.964-1.825h1.95c1.085,0,1.964,0.817,1.964,1.825C220.353,195.786,219.474,196.603,218.389,196.603z
			 M206.688,196.603h-1.951c-1.084,0-1.964-0.816-1.964-1.824c0-1.008,0.879-1.825,1.964-1.825h1.951
			c1.085,0,1.963,0.817,1.963,1.825C208.651,195.786,207.773,196.603,206.688,196.603z"/>
		<path fill="#FCFCFC" d="M673.742,196.603h-0.982c-1.085,0-1.964-0.816-1.964-1.824c0-1.008,0.879-1.825,1.964-1.825h0.982
			c1.085,0,1.964,0.817,1.964,1.825C675.706,195.786,674.827,196.603,673.742,196.603z"/>
	</g>
	<g>
		<path fill="#FCFCFC" d="M312.821,128.644c-13.358-14.305-35.662-38.505-35.888-38.744l-0.621-0.682l-17.294-0.649h0.306V78.337
			H235.43v10.232h1.662c-3.383,0.493-5.944,2.769-5.944,5.483l-0.982,75.981c0,2.64,1.483,4.019,2.727,4.707
			c1.504,0.833,3.239,1.009,4.438,1.009c0.578,0,1.043-0.041,1.323-0.072h67.271c4.033,0,7.315-2.513,7.315-5.603v-40.985
			L312.821,128.644z M308.787,170.075c0,1.208-1.284,2.192-2.863,2.192h-67.457l-0.222,0.003l-0.195,0.029
			c-0.005,0-0.303,0.04-0.722,0.04c-0.437,0-1.259-0.047-1.821-0.362c-0.584-0.324-0.888-0.979-0.888-1.925l0.982-75.984
			c0-1.208,1.29-2.188,2.866-2.188h17.761l17.692,0.665c3.685,3.992,22.735,24.644,34.867,37.637V170.075L308.787,170.075z"/>
		<path fill="#FCFCFC" d="M253.176,94.8l1.004,2.253c0.03,0.079,3.504,7.884,7.121,15.585c2.131,4.536,3.897,8.149,5.254,10.749
			c2.658,5.104,3.378,5.934,5.15,5.934h30.399l-5.411-6.011l-0.326-0.412C273.846,94.8,264.615,94.8,256.467,94.8H253.176z
			 M292.237,124.271v1.641h-19.423c-1.975-2.915-7.99-15.588-13.383-27.632C265.833,98.709,274.166,101.807,292.237,124.271z"/>
		<path fill="#FCFCFC" d="M269.761,132.694c-9.447,0-17.106,7.358-17.106,16.44c0,9.08,7.659,16.437,17.106,16.437
			c9.454,0,17.12-7.356,17.12-16.437C286.881,140.052,279.215,132.694,269.761,132.694z M269.761,159.852
			c-3.693,0-6.693-2.878-6.693-6.432c0-3.548,6.693-15.008,6.693-15.008s6.702,11.459,6.702,15.008
			C276.463,156.974,273.464,159.852,269.761,159.852z"/>
	</g>
	<g>
		<path fill="#FCFCFC" d="M483.03,280.167c0.018-0.208,0.03-0.417,0.047-0.606c0.224-5.104-0.838-10.031-2.92-14.649
			c1.634-3.331,2.64-6.892,2.873-10.603c0.018-0.207,0.03-0.414,0.047-0.623c1.007-23.056-23.47-42.578-54.595-43.528
			c-29.726-0.919-54.735,17.341-55.771,40.707c-0.204,4.604,0.894,9.12,3.02,13.311c-1.763,3.945-2.826,8.158-3.02,12.566
			c-0.902,20.575,23.652,38.765,53.648,39.683C456.304,317.344,481.731,301.087,483.03,280.167z M409.956,259.588
			c3.183,3.605,0.821,10.184-6.758,19.021l-0.157-0.082c-11.138-4.862-18.881-12.566-21.312-20.928
			C390.812,255.243,405.572,254.604,409.956,259.588z M419.103,283.05c-4.174-0.6-8.231-1.604-12.08-2.965
			c5.411-6.429,8.267-11.862,8.443-16.224c0.021-0.313,0.021-0.621,0-0.935c3.216,1.661,7.083,2.7,11.271,2.823
			c0.126,0.001,0.278,0,0.404,0.001C421.723,270.359,418.705,276.282,419.103,283.05z M434.427,266.252
			c7.02-1.023,16.247,6.104,20.328,11.993l-0.008,0.006c-8.271,3.89-17.994,5.756-28.089,5.445c-0.41,0-1.73-0.104-3.162-0.208
			C425.146,273.01,428.918,267.082,434.427,266.252z M443.675,247.414c0.4,1.09,0.614,2.258,0.566,3.469
			c-0.299,6.567-8.088,11.709-17.358,11.424c-9.268-0.313-16.57-5.896-16.281-12.463c0.057-1.21,0.35-2.365,0.863-3.428
			c-0.118,0.52-0.19,1.04-0.216,1.581c-0.298,6.625,6.758,12.231,15.724,12.513c8.941,0.26,16.485-4.882,16.768-11.496
			C443.769,248.48,443.739,247.938,443.675,247.414z M439.603,248.895c-0.22,4.688-5.811,8.336-12.479,8.129
			c-6.683-0.203-11.939-4.174-11.726-8.888c0.205-4.712,5.805-8.366,12.472-8.155c0.405,0,0.81,0.043,1.204,0.096
			c1.567,0.421,2.851,0.662,3.499,0.734C436.853,242.262,439.76,245.377,439.603,248.895z M381.893,244.962
			c6.208,1.929,17.03,3.873,25.01,2.078c-0.265,0.843-0.413,1.765-0.446,2.673c-0.064,1.376,0.125,2.73,0.55,4.046
			c-7.997-2.534-19.576-1.11-25.966,0.521c-0.119-1.09-0.17-2.149-0.124-3.184C380.997,249.082,381.329,247.018,381.893,244.962z
			 M405.094,221.076c0.403,0.529,0.804,1.066,1.163,1.59c0.233,0.324,0.451,0.646,0.668,0.964c0.25,0.354,0.474,0.688,0.702,1.052
			c1.114,1.172,1.913,2.698,2.459,4.141c2.506,4.838,3.088,8.645,1.643,11.189c-0.853,0.698-1.631,1.491-2.301,2.307
			c-4.629,2.748-13.732,2.334-21.331,0.672c-0.358-0.041-0.742-0.104-1.134-0.208c-1.376-0.312-2.708-0.688-4.026-1.081
			c0.007-0.061,0.038-0.119,0.059-0.163c0.013-0.047,0.039-0.104,0.056-0.104c0.783-1.773,3.012-6.328,6.668-10.055
			c3.862-4.07,8.871-7.498,14.512-9.941C404.511,221.307,404.806,221.189,405.094,221.076z M417.065,217.74
			c0,0,0.003,0.004,0.003,0.006c0.045,0.186,0.071,0.357,0.071,0.539c0.051-0.116,0.088-0.221,0.122-0.276
			c0.003-0.011-0.053,1.404-0.049,1.404c0.039,0.336,0.067,0.675,0.097,1.03c0.051,0.371,0.087,0.736,0.125,1.123
			c0.183,1.396,0.409,2.728,0.673,3.938c0.094,0.371,0.183,0.764,0.265,1.105c0.993,3.811,2.413,6.643,4.075,8.729
			c-2.067,0.374-4.023,0.939-5.811,1.732c0.058-2.805-0.896-6.075-2.85-9.823c-0.185-0.356-0.381-0.681-0.563-1.043
			c-0.657-1.164-1.392-2.332-2.21-3.571c-0.134-0.209-0.275-0.415-0.414-0.623l0,0c-0.598-0.781-1.196-1.559-1.837-2.285
			C411.441,218.859,414.236,218.169,417.065,217.74z M453.922,227.868c-0.572,0.58-1.169,1.101-1.801,1.651
			c-0.317,0.279-0.648,0.563-0.986,0.812c-0.287,0.235-0.578,0.454-0.86,0.681c-3.854,2.901-8.28,5.182-12.45,6.053
			c-2.867-1.24-6.188-2-9.73-2.111c-0.263-0.012-0.509-0.012-0.783-0.012c-2.149-1.869-3.761-4.764-4.805-8.642
			c-0.09-0.35-0.176-0.76-0.279-1.14c-0.278-1.237-0.503-2.567-0.671-3.98c-0.05-0.393-0.091-0.76-0.118-1.143
			c-0.097-0.928-0.158-1.868-0.198-2.819c0.349-0.047,0.688-0.089,1.054-0.089c2.017-0.143,4.01-0.199,5.896-0.118
			c10.072,0.312,19.638,2.843,27.677,7.368c0.278,0.137,0.538,0.311,0.789,0.436c-0.23,0.312-0.466,0.623-0.733,0.936
			c-0.245,0.313-0.502,0.587-0.765,0.855C454.765,227.037,454.355,227.451,453.922,227.868z M464.127,236.654
			c-6.587,1.797-13.514,4.883-16.77,9.046c-1.051-2.37-2.87-4.478-5.24-6.233c4.721-1.602,9.281-4.453,12.97-7.591
			c0.314-0.251,0.609-0.521,0.897-0.771c1.036-0.914,1.979-1.857,2.834-2.797c0.233-0.276,0.48-0.558,0.719-0.812
			c0.127-0.175,0.238-0.299,0.351-0.472c2.048,1.621,5.599,4.642,8.721,8.591c-1.036,0.207-2.108,0.415-3.2,0.708
			C464.973,236.434,464.55,236.548,464.127,236.654z M470.5,265.73c-14.133-5.406-21.545-10.936-20.845-15.576
			c0.733-4.948,10.244-8.977,18.265-10.813c0.401-0.089,0.796-0.192,1.188-0.284c0.489-0.1,1.17-0.151,1.827-0.222
			c1.388,2.183,2.531,4.567,3.202,7.039l-0.01,0.022l0.023,0.221c0.042,0.195,0.042,0.375,0.06,0.544l0.028,0.312l0.122,0.146
			c0.224,1.098,0.384,2.258,0.45,3.45c0.066,0.938,0.053,3.117,0.032,3.352C474.584,258.047,473.125,262.004,470.5,265.73z
			 M460.466,275.084c-0.698,0.475-1.439,0.912-2.188,1.337c-3.435-4.839-10.935-11.644-18.887-13.334
			c3.537-1.8,6.282-4.364,7.757-7.401c3.017,4.354,9.68,9.111,20.603,13.379C465.69,271.264,463.246,273.313,460.466,275.084z
			 M417.979,309.661c-15.135-1.767-29.825-10.151-36.068-22.073c-3.447-6.591-4.055-12.408-2.445-17.619
			c9.193,11.631,26.832,19.957,46.896,20.581c21.357,0.671,40.417-7.431,50.068-19.729c1.433,10.186-3.488,21.084-12.238,28.145
			C451.864,308.936,434.413,311.558,417.979,309.661z"/>
		<path fill="#FCFCFC" d="M426.037,306.301c-0.277-0.012-0.552-0.021-0.828-0.04c-7.469-0.31-14.886-1.792-21.792-4.485
			c-3.766-1.438-7.384-3.226-10.719-5.406c-1.655-1.143-3.238-2.376-4.664-3.743c-0.289-0.308-0.574-0.618-0.854-0.935v-0.838
			c0.435,0.424,0.897,0.838,1.372,1.219c0.563,0.453,1.153,0.845,1.759,1.232c-1.092-0.882-2.119-1.808-3.131-2.744v-0.429
			c5.688,4.106,11.875,7.457,18.447,9.767c4.591,1.572,9.364,2.679,14.195,3.22c0.003,0,0.015,0,0.034,0
			c0.762,0.104,1.531,0.178,2.313,0.221c0.482,0.054,0.95,0.093,1.439,0.099c0.397,0.039,0.796,0.063,1.186,0.092
			c0.615,0.007,1.247,0.015,1.879,0.025c0.413,0.014,0.804,0.021,1.22,0.018c0.418,0.003,0.813-0.004,1.224-0.018
			c0.632-0.012,1.268-0.02,1.882-0.025c0.392-0.028,0.784-0.053,1.182-0.092c0.492-0.006,0.961-0.045,1.444-0.099
			c0.775-0.043,1.545-0.114,2.31-0.221c0.02,0,0.032,0,0.037,0c4.828-0.541,9.604-1.647,14.194-3.22
			c7.021-2.486,13.616-6.127,19.612-10.606v0.19c-1.354,1.332-2.794,2.629-4.3,3.822c0.608-0.389,1.197-0.779,1.76-1.232
			c0.752-0.588,1.479-1.24,2.093-1.961c0.168-0.186,0.311-0.393,0.447-0.601v0.632c-0.027,0.096-0.057,0.147-0.104,0.198
			c-0.554,0.832-1.221,1.563-1.919,2.284c-1.425,1.367-3.007,2.602-4.666,3.743c-3.332,2.182-6.948,3.969-10.719,5.407
			c-6.904,2.692-14.324,4.176-21.791,4.484c-0.276,0.019-0.549,0.028-0.825,0.04c-0.377,0.019-0.769,0.037-1.152,0.037
			c-0.229,0-0.462,0-0.709,0c-0.245,0-0.473,0-0.706,0C426.807,306.338,426.415,306.318,426.037,306.301z"/>
		<path fill="#FCFCFC" d="M452.371,296.266c-6.904,2.686-14.324,4.16-21.791,4.469c-0.276,0.02-0.549,0.031-0.825,0.045
			c-0.377,0.014-0.769,0.049-1.152,0.051c-0.229,0.005-0.462-0.007-0.709-0.007c-0.244,0-0.473,0.012-0.706,0.007
			c-0.381-0.002-0.771-0.037-1.149-0.051c-0.277-0.014-0.552-0.025-0.828-0.045c-7.469-0.309-14.886-1.783-21.792-4.469
			c-3.766-1.455-7.384-3.222-10.719-5.424c-1.655-1.123-3.238-2.369-4.664-3.742c-0.289-0.291-0.574-0.604-0.854-0.914v-0.856
			c0.435,0.435,0.897,0.854,1.372,1.223c0.562,0.46,1.153,0.841,1.759,1.226c-1.092-0.862-2.119-1.797-3.131-2.729v-0.423
			c5.688,4.087,11.875,7.438,18.447,9.754c4.591,1.576,9.364,2.67,14.195,3.237c0.003,0,0.015,0,0.034,0
			c0.762,0.103,1.531,0.157,2.313,0.209c0.482,0.048,0.95,0.098,1.439,0.103c0.397,0.023,0.796,0.053,1.186,0.075
			c0.615,0.03,1.247,0.03,1.879,0.03c0.413,0.007,0.804,0.014,1.22,0.012c0.418,0.002,0.813-0.005,1.224-0.012
			c0.632,0,1.268,0,1.882-0.03c0.392-0.022,0.784-0.052,1.182-0.075c0.492-0.005,0.961-0.055,1.444-0.103
			c0.775-0.052,1.545-0.106,2.31-0.209c0.02,0,0.032,0,0.037,0c4.828-0.567,9.604-1.661,14.194-3.237
			c7.021-2.473,13.616-6.111,19.612-10.607v0.187c-1.354,1.334-2.794,2.633-4.3,3.821c0.608-0.385,1.197-0.766,1.76-1.227
			c0.752-0.587,1.479-1.246,2.093-1.969c0.168-0.176,0.311-0.369,0.447-0.575v0.623c-0.027,0.082-0.057,0.136-0.104,0.208
			c-0.554,0.829-1.221,1.559-1.919,2.262c-1.425,1.373-3.007,2.619-4.666,3.742C459.758,293.044,456.142,294.811,452.371,296.266z"
			/>
		<path fill="#FCFCFC" d="M452.371,290.757c-6.904,2.667-14.324,4.158-21.791,4.47c-0.276,0-0.549,0.015-0.825,0.021
			c-0.377,0.021-0.769,0.054-1.152,0.063c-0.229,0-0.462-0.021-0.709-0.021c-0.244,0-0.473,0.021-0.706,0.021
			c-0.381-0.011-0.771-0.043-1.149-0.063c-0.277-0.007-0.552-0.021-0.828-0.021c-7.469-0.312-14.886-1.803-21.792-4.47
			c-3.766-1.455-7.384-3.228-10.719-5.44c-1.655-1.117-3.238-2.349-4.664-3.741c-0.289-0.289-0.574-0.603-0.854-0.919V279.8
			c0.435,0.44,0.897,0.856,1.372,1.234c0.562,0.45,1.153,0.836,1.759,1.227c-1.092-0.851-2.119-1.782-3.131-2.717v-0.435
			c5.688,4.074,11.875,7.436,18.447,9.744c4.591,1.594,9.364,2.674,14.195,3.258c0.003,0,0.015,0,0.034,0
			c0.762,0.088,1.531,0.136,2.313,0.207c0.482,0.025,0.95,0.07,1.439,0.104c0.397,0,0.796,0.028,1.186,0.048
			c0.615,0.045,1.247,0.055,1.879,0.055c0.413,0,0.804,0,1.22,0c0.418,0,0.813,0,1.224,0c0.632,0,1.268-0.01,1.882-0.055
			c0.392-0.02,0.784-0.048,1.182-0.048c0.492-0.034,0.961-0.079,1.444-0.104c0.775-0.071,1.545-0.119,2.31-0.207
			c0.02,0,0.032,0,0.037,0c4.828-0.584,9.604-1.664,14.194-3.258c7.021-2.457,13.616-6.103,19.612-10.607v0.189
			c-1.354,1.328-2.794,2.627-4.3,3.824c0.608-0.391,1.197-0.775,1.76-1.227c0.752-0.596,1.479-1.25,2.093-1.971
			c0.168-0.181,0.311-0.377,0.447-0.576v0.642c-0.027,0.06-0.057,0.11-0.104,0.197c-0.554,0.813-1.221,1.559-1.919,2.249
			c-1.425,1.394-3.007,2.623-4.666,3.74C459.758,287.529,456.142,289.302,452.371,290.757z"/>
	</g>
	<g>
		<path fill="#FCFCFC" d="M330.631,308.859c-0.271,0-0.539-0.078-0.763-0.23l-24.782-16.656c-0.457-0.31-0.65-0.855-0.475-1.354
			c0.174-0.499,0.675-0.839,1.239-0.839h0.003l9.135,0.019l-3.393-8.264l-17.44-0.056c-0.516-0.002-0.983-0.287-1.189-0.728
			c-0.207-0.438-0.114-0.952,0.235-1.304c1.891-1.908,3.279-4.356,3.911-6.889c0.137-0.55,0.663-0.938,1.269-0.938
			c0.002,0,0.004,0,0.006,0l9.349,0.039l-2.919-7.788l-7.068-0.041c-0.411-0.002-0.795-0.184-1.04-0.49
			c-0.244-0.306-0.318-0.701-0.201-1.066l5.357-16.614c0.13-0.404,0.479-0.72,0.92-0.825c0.438-0.104,0.909,0.009,1.235,0.305
			l18.555,16.75c0.381,0.346,0.499,0.87,0.297,1.326c-0.201,0.458-0.67,0.729-1.213,0.753l-6.037-0.034l6.275,13.004l1.466,2.906
			l5.206,9.979l10.302,0.02c0.444,0.001,0.857,0.212,1.096,0.56c0.238,0.349,0.27,0.783,0.085,1.158l-8.24,16.597
			c-0.164,0.328-0.476,0.57-0.853,0.664C330.853,308.847,330.741,308.859,330.631,308.859z M309.885,292.209l20.226,13.596
			l6.725-13.543l-9.086-0.019c-0.498,0-0.952-0.267-1.17-0.685l-7.611-14.735l-1.678-3.401l-4.867-10.222
			c-0.179-0.374-0.141-0.81,0.102-1.152c0.242-0.341,0.651-0.548,1.09-0.548c0.002,0,0.004,0,0.007,0l4.813,0.027l-14.692-13.264
			l-4.241,13.157l6.249,0.035c0.551,0.002,1.042,0.328,1.223,0.812l3.828,10.213c0.139,0.373,0.076,0.781-0.17,1.103
			c-0.246,0.319-0.593,0.487-1.066,0.507l-10.183-0.043c-0.558,1.77-1.429,3.48-2.548,5.02l15.663,0.05
			c0.539,0.002,1.021,0.312,1.212,0.78l4.387,10.685c0.153,0.372,0.099,0.791-0.146,1.119c-0.243,0.327-0.644,0.522-1.072,0.522
			h-0.003L309.885,292.209z"/>
		<path fill="#FCFCFC" d="M278.243,308.859c-0.361,0-0.707-0.14-0.953-0.386l-16.787-16.743c-0.354-0.354-0.448-0.867-0.24-1.311
			c0.207-0.441,0.676-0.727,1.194-0.727c0.001,0,0.002,0,0.002,0l9.774,0.019l0.174-4.339c0.015-0.355,0.199-0.691,0.501-0.909
			c0.305-0.221,0.697-0.302,1.072-0.229c3.314,0.658,6.434,0.673,9.736,0.049c0.369-0.07,0.753,0.013,1.051,0.225
			c0.298,0.213,0.484,0.534,0.508,0.885l0.303,4.349l9.901,0.018c0.514,0.003,0.98,0.284,1.189,0.722
			c0.207,0.438,0.12,0.947-0.225,1.303l-16.236,16.679c-0.245,0.254-0.59,0.397-0.956,0.399
			C278.25,308.859,278.247,308.859,278.243,308.859z M264.457,292.121l13.773,13.736l13.319-13.684l-8.192-0.017
			c-0.686-0.003-1.253-0.497-1.297-1.134l-0.288-4.129c-2.644,0.363-5.168,0.354-7.815-0.033l-0.166,4.111
			c-0.027,0.647-0.602,1.162-1.302,1.162h-0.002L264.457,292.121z"/>
		<path fill="#FCFCFC" d="M225.856,308.859c-0.104,0-0.208-0.012-0.31-0.034c-0.377-0.087-0.694-0.324-0.862-0.649l-8.792-16.824
			c-0.197-0.375-0.17-0.819,0.068-1.172c0.239-0.354,0.655-0.566,1.104-0.566c0.001,0,0.002,0,0.002,0l10.19,0.018l6.818-14.117
			l1.58-3.418l3.848-8.593l-6.048-0.032c-0.527-0.005-1-0.303-1.2-0.757c-0.198-0.453-0.083-0.974,0.291-1.317l18.161-16.676
			c0.324-0.298,0.789-0.416,1.229-0.314c0.44,0.1,0.792,0.406,0.929,0.808l5.751,16.813c0.126,0.369,0.055,0.771-0.193,1.084
			c-0.247,0.313-0.63,0.49-1.057,0.494l-7.097-0.041l-2.726,7.845l9.981,0.042c0.609,0.003,1.136,0.396,1.266,0.951
			c0.604,2.548,1.97,5.017,3.851,6.949c0.345,0.356,0.434,0.867,0.224,1.306c-0.21,0.438-0.676,0.719-1.19,0.719
			c0,0-0.002,0-0.004,0l-17.71-0.062l-3.155,8.344l9.284,0.017c0.561,0.003,1.058,0.337,1.234,0.832
			c0.175,0.493-0.008,1.039-0.459,1.351l-24.229,16.766C226.406,308.777,226.133,308.859,225.856,308.859z M219.147,292.035
			l7.193,13.77l19.826-13.718l-7.201-0.013c-0.422-0.001-0.817-0.191-1.061-0.514c-0.244-0.319-0.306-0.729-0.166-1.1l4.072-10.762
			c0.183-0.483,0.676-0.811,1.229-0.811c0.002,0,0.004,0,0.004,0l15.972,0.053c-1.112-1.557-1.972-3.289-2.513-5.077l-10.751-0.044
			c-0.416-0.002-0.805-0.188-1.049-0.502c-0.244-0.313-0.313-0.715-0.185-1.082l3.566-10.264c0.175-0.502,0.678-0.887,1.248-0.837
			l6.259,0.035l-4.564-13.344l-14.412,13.235l4.844,0.025c0.434,0.004,0.838,0.207,1.078,0.542c0.241,0.336,0.284,0.763,0.118,1.134
			l-6.723,14.853l-1.39,2.938l-5.259,10.786c-0.211,0.434-0.675,0.711-1.186,0.711h-0.003L219.147,292.035z"/>
		<path fill="#FCFCFC" d="M277.96,283.514c-3.673,0-7.343-0.842-10.986-2.52c-5.315-2.518-7.73-8.866-7.125-12.313
			c0.09-0.517,0.525-0.918,1.08-1c3.215-0.481,5.59-1.828,7.06-4.004c4.923-7.3-1.36-22.498-5.949-33.597
			c-0.647-1.563-1.257-3.041-1.842-4.501c-1.512-3.193,0.937-10.704,6.747-13.453c7.32-3.376,14.726-3.379,22.019-0.014
			c5.934,2.809,8.297,10.257,6.704,13.634c-0.521,1.317-1.147,2.823-1.808,4.412l-0.085,0.206
			c-4.749,11.406-10.658,25.603-5.884,32.982c1.467,2.266,3.873,3.713,7.151,4.299c0.532,0.097,0.946,0.484,1.038,0.984
			c0.637,3.454-1.752,9.821-7.086,12.346C285.328,282.669,281.642,283.514,277.96,283.514z M262.357,269.891
			c0.024,2.748,2.058,7.174,5.786,8.939c6.516,3.005,13.141,3.002,19.678-0.016c3.752-1.775,5.771-6.239,5.756-8.988
			c-3.548-0.828-6.21-2.583-7.921-5.229c-5.432-8.397,0.732-23.207,5.686-35.104l0.085-0.205c0.655-1.577,1.276-3.07,1.821-4.446
			c1.06-2.249-0.787-8.354-5.457-10.564c-6.515-3.004-13.141-3-19.679,0.015c-4.563,2.161-6.492,8.289-5.502,10.38
			c0.608,1.518,1.215,2.987,1.858,4.539c4.787,11.578,11.34,27.432,5.725,35.755C268.473,267.516,265.839,269.169,262.357,269.891z
			 M285.715,228.979c-1.142,0-2.359-0.104-3.604-0.207c-1.356-0.115-2.759-0.234-4.145-0.234c-1.387,0-2.789,0.119-4.146,0.234
			c-3.322,0.279-6.458,0.547-8.435-1.129c-1.182-1.002-1.756-2.522-1.756-4.65c0-4.713,7.503-9.885,14.336-9.885
			s14.337,5.172,14.337,9.885c0,2.128-0.575,3.648-1.755,4.65C289.312,228.691,287.621,228.979,285.715,228.979z M277.967,226.116
			c1.504,0,2.968,0.125,4.382,0.243c2.733,0.231,5.313,0.453,6.443-0.506c0.61-0.517,0.906-1.453,0.906-2.861
			c0-3.123-5.912-7.463-11.732-7.463c-5.819,0-11.731,4.34-11.731,7.463c0,1.408,0.296,2.346,0.906,2.861
			c1.13,0.959,3.71,0.737,6.442,0.506C275,226.241,276.463,226.116,277.967,226.116z"/>
	</g>
	<g>
		<path fill="#FCFCFC" d="M439.5,86.736c-0.033,0-0.066-0.001-0.099-0.003l0,0c0,0-0.002,0-0.004,0l0,0
			c-0.008-0.001-0.014-0.002-0.021-0.002l0,0c-0.039-0.003-0.115-0.011-0.126-0.011c-0.715-0.074-1.232-0.669-1.158-1.334
			c0.072-0.665,0.69-1.153,1.424-1.087l0.104,0.009c0.717,0.062,1.245,0.648,1.184,1.315c-0.058,0.634-0.628,1.113-1.301,1.115
			C439.503,86.736,439.502,86.736,439.5,86.736z"/>
		<path fill="#FCFCFC" d="M397.716,138.145c-0.091,0-0.182-0.009-0.273-0.027l-20.747-4.13c-0.625-0.125-1.062-0.649-1.034-1.244
			l0.503-10.641c0.022-0.471,0.334-0.888,0.802-1.069l7.146-2.787c0.362-0.141,0.772-0.125,1.119,0.046l9.115,4.47
			c0.317,0.155,0.551,0.424,0.649,0.746l3.981,13.086c0.125,0.41,0.01,0.852-0.305,1.163
			C398.422,138.008,398.075,138.145,397.716,138.145z M378.328,131.823l17.535,3.489l-3.238-10.637l-8.07-3.959l-5.809,2.266
			L378.328,131.823z"/>
		<path fill="#FCFCFC" d="M470.153,144.463c-0.448,0-0.865-0.212-1.107-0.564c-0.244-0.361-0.27-0.815-0.064-1.197l6.534-12.168
			c0.159-0.297,0.443-0.522,0.786-0.621l9.852-2.815c0.373-0.107,0.78-0.053,1.107,0.148l6.462,3.973
			c0.424,0.259,0.646,0.723,0.575,1.189l-1.638,10.542c-0.092,0.588-0.626,1.029-1.266,1.043l-21.211,0.47
			C470.174,144.463,470.163,144.463,470.153,144.463z M477.609,132.086l-5.313,9.893l17.927-0.396l1.36-8.76l-5.253-3.229
			L477.609,132.086z"/>
		<path fill="#FCFCFC" d="M434.496,129.44c-12.233-1.054-24.442-1.705-31.991-1.547l0.048,1.922
			c7.487-0.167,19.606,0.479,31.75,1.528c12.484,1.08,24.994,2.585,32.522,4.079l0.433-1.88
			C459.673,132.037,447.072,130.525,434.496,129.44z"/>
		<path fill="#FCFCFC" d="M486.606,176.092h-11.382c-0.347,0-0.68-0.128-0.926-0.357l-3.104-2.883
			c-0.245-0.229-0.384-0.538-0.384-0.861V160.66l-98.735-8.612c-0.575-0.05-1.047-0.444-1.161-0.971
			c-2.881-13.2-1.664-22.45,0.019-35.25c0.056-0.427,0.352-0.796,0.777-0.969l6.571-2.662l-10.914-2.072
			c-0.316-0.06-0.598-0.227-0.79-0.468l-1.646-2.063c-0.193-0.241-0.282-0.541-0.252-0.839l0.351-3.473
			c0.14-1.38,1.26-2.527,2.723-2.791l12.554-2.258c0.911-0.162,1.862,0.031,2.613,0.532c0.752,0.501,1.254,1.277,1.378,2.13
			l0.374,2.568l11.463-22.417c0.208-0.404,0.636-0.67,1.115-0.693c13.977-0.682,28.149-0.42,42.12,0.778l0.513,0.04
			c14.121,1.231,28.271,3.441,42.053,6.568c0.469,0.107,0.835,0.442,0.957,0.875l6.774,24.008l0.882-2.459
			c0.292-0.816,0.94-1.492,1.781-1.854c0.837-0.363,1.813-0.388,2.672-0.072l11.884,4.392l0,0c1.385,0.511,2.255,1.832,2.115,3.21
			l-0.35,3.473c-0.03,0.299-0.179,0.578-0.416,0.782l-2.03,1.742c-0.237,0.204-0.548,0.319-0.87,0.323l-11.138,0.15l5.923,3.751
			c0.384,0.242,0.601,0.656,0.569,1.085c-0.91,12.869-1.565,22.167-7.04,34.638c-0.219,0.498-0.77,0.804-1.335,0.752l-1.299-0.113
			v9.569c0,0.323-0.139,0.632-0.385,0.861l-3.103,2.883C487.286,175.964,486.953,176.092,486.606,176.092z M475.769,173.657h10.296
			l2.335-2.17v-10.401c0-0.343,0.154-0.67,0.428-0.9c0.273-0.231,0.64-0.346,1.005-0.313l1.758,0.154
			c4.886-11.473,5.59-20.352,6.44-32.346l-7.899-5.003c-0.262-0.166-0.449-0.413-0.529-0.696l-0.15-0.535
			c-0.104-0.361-0.021-0.749,0.224-1.046c0.244-0.298,0.623-0.476,1.025-0.481l14.1-0.188l1.293-1.11l0.306-3.009
			c0.03-0.309-0.165-0.605-0.477-0.721l-11.883-4.39c-0.19-0.073-0.412-0.066-0.6,0.016c-0.188,0.081-0.334,0.232-0.4,0.416
			l-2.274,6.345c-0.185,0.512-0.714,0.843-1.284,0.833c-0.58-0.019-1.078-0.388-1.227-0.909l-7.693-27.268
			c-13.419-3.009-27.182-5.14-40.916-6.338l-0.512-0.041c-13.583-1.162-27.359-1.433-40.961-0.808l-13.02,25.461
			c-0.249,0.487-0.815,0.759-1.385,0.681c-0.574-0.084-1.02-0.506-1.097-1.041l-0.965-6.627c-0.028-0.191-0.14-0.365-0.309-0.478
			c-0.17-0.113-0.384-0.157-0.588-0.12l-12.553,2.259c-0.328,0.059-0.579,0.317-0.611,0.626l-0.304,3.009l1.048,1.313l13.816,2.625
			c0.394,0.076,0.73,0.315,0.91,0.65c0.181,0.335,0.184,0.729,0.011,1.066l-0.256,0.5c-0.136,0.264-0.371,0.475-0.66,0.592
			l-8.762,3.55c-1.567,11.929-2.654,20.775-0.15,32.893l98.949,8.631c0.674,0.059,1.189,0.584,1.189,1.212v11.936L475.769,173.657z"
			/>
		<path fill="#FCFCFC" d="M482.711,120c-0.096,0-0.195-0.011-0.292-0.032c-3.916-0.833-7.92-1.604-11.899-2.287
			c-5.66-0.972-11.289-1.778-17.207-2.466c-5.365-0.623-10.823-1.131-16.688-1.552l-0.548-0.052
			c-11.969-1.214-23.003-1.823-33.738-1.864c-4.003-0.016-8.048,0.048-12.013,0.189c-0.423,0.029-0.84-0.167-1.1-0.487
			c-0.258-0.321-0.33-0.739-0.192-1.119l9.354-25.736c0.171-0.472,0.636-0.799,1.169-0.827c5.214-0.265,10.323-0.412,15.186-0.437
			c4.956-0.021,9.893,0.076,14.667,0.302c3.209,0.15,6.453,0.362,9.645,0.63l0.387,0.03c0.025,0.002,0.052,0.002,0.075,0.005
			c0.019,0.001,0.035,0.002,0.053,0.005h0.001c0,0,0.002,0.001,0.004,0.001v-0.001c2.192,0.194,4.581,0.442,7.3,0.761
			c8.873,1.038,17.721,2.512,27.047,4.507c1.678,0.36,3.367,0.733,5.07,1.125c0.52,0.119,0.909,0.521,0.982,1.013l4.037,26.905
			c0.06,0.397-0.096,0.796-0.413,1.066C483.354,119.888,483.037,120,482.711,120z M401.188,109.309c0.387,0,0.775,0.001,1.161,0.002
			c10.827,0.042,21.951,0.657,34.011,1.879l0.213,0.02c0,0,0.131,0.013,0.132,0.013l0.17,0.017
			c5.858,0.419,11.356,0.932,16.762,1.56c5.97,0.693,11.648,1.506,17.36,2.486c3.39,0.583,6.799,1.226,10.157,1.919L477.5,92.863
			c-1.397-0.317-2.786-0.624-4.168-0.918c-9.239-1.977-18.001-3.437-26.787-4.464c-2.685-0.314-5.039-0.561-7.201-0.751
			c-0.007-0.001-0.013-0.002-0.02-0.002l-0.506-0.039c-3.156-0.265-6.366-0.474-9.542-0.624c-4.726-0.224-9.606-0.322-14.52-0.299
			c-4.544,0.023-9.307,0.154-14.17,0.39l-8.464,23.286C395.127,109.353,398.165,109.309,401.188,109.309z"/>
		<path fill="#FCFCFC" d="M397.716,138.145c-0.092,0-0.183-0.009-0.274-0.027l-20.746-4.13c-0.625-0.125-1.062-0.649-1.034-1.244
			l0.503-10.641c0.022-0.471,0.334-0.888,0.802-1.069l7.146-2.787c0.362-0.141,0.772-0.125,1.119,0.046l9.115,4.47
			c0.317,0.155,0.551,0.425,0.649,0.746l3.981,13.086c0.125,0.41,0.01,0.852-0.306,1.163
			C398.422,138.008,398.074,138.145,397.716,138.145z M378.328,131.823l17.535,3.489l-3.238-10.637l-8.07-3.959l-5.809,2.266
			L378.328,131.823z"/>
		<polygon fill="#FCFCFC" points="433.521,139.084 433.521,139.084 405.28,136.622 405.28,136.622 405.28,136.622 405.152,137.898 
			405.087,138.537 433.328,140.999 462.588,143.551 462.781,141.636 		"/>
		<path fill="#FCFCFC" d="M464.242,137.446c-0.948-0.157-2.217-0.335-3.745-0.529c-2.545-0.321-5.803-0.683-9.474-1.062
			c-3.673-0.376-7.755-0.768-11.948-1.147c-0.838-0.077-1.684-0.153-2.526-0.227c-0.846-0.076-1.692-0.15-2.54-0.223l0,0
			c-0.825-0.073-1.649-0.143-2.474-0.212c-0.823-0.07-1.644-0.139-2.458-0.206c-10.597-0.877-20.374-1.548-24.417-1.589
			c-0.311-0.003-0.587-0.002-0.828,0.002l0.049,1.923l0,0l0,0c0.096-0.002,0.209-0.002,0.319-0.003
			c0.054-0.001,0.101-0.002,0.16-0.002c0.794,0,1.882,0.032,3.207,0.092c0.886,0.039,1.874,0.091,2.952,0.153
			c3.24,0.187,7.287,0.469,11.711,0.811c3.686,0.283,7.631,0.608,11.585,0.952l0,0l0,0c11.824,1.026,23.73,2.219,29.001,2.993
			c0.753,0.11,1.369,0.212,1.832,0.304l0.434-1.879C464.838,137.549,464.558,137.499,464.242,137.446z"/>
		<path fill="#FCFCFC" d="M434.983,124.619c-2.81-0.241-5.622-0.444-8.438-0.61c-8.444-0.496-16.912-0.658-25.371-0.478l0.048,1.922
			l0,0l0,0c2.8-0.06,5.6-0.082,8.398-0.066c8.398,0.045,16.799,0.43,25.166,1.145l0,0l0,0c11.495,0.984,22.929,2.595,34.216,4.832
			l0.431-1.879C458.069,127.23,446.558,125.608,434.983,124.619z"/>
		<path fill="#FCFCFC" d="M470.153,144.463c-0.448,0-0.865-0.212-1.107-0.564c-0.244-0.361-0.27-0.815-0.064-1.197l6.534-12.168
			c0.159-0.297,0.443-0.522,0.786-0.621l9.852-2.815c0.373-0.107,0.78-0.053,1.107,0.148l6.462,3.973
			c0.424,0.259,0.646,0.723,0.575,1.189l-1.638,10.542c-0.092,0.588-0.626,1.029-1.266,1.043l-21.211,0.47
			C470.174,144.463,470.163,144.463,470.153,144.463z M477.609,132.086l-5.313,9.893l17.927-0.396l1.36-8.76l-5.253-3.229
			L477.609,132.086z"/>
		<path fill="#FCFCFC" d="M373.746,176.092H354.09c-0.724,0-1.311-0.545-1.311-1.217v-2.884c0-0.323,0.138-0.633,0.385-0.861
			l3.103-2.884c0.245-0.228,0.579-0.356,0.926-0.356h2.31v-14.695h-1.329v7.163c0,0.671-0.586,1.217-1.31,1.217h-10.863
			c-0.724,0-1.31-0.545-1.31-1.217v-2.885c0-0.672,0.586-1.218,1.31-1.218h6.449v-7.16c0-0.672,0.586-1.219,1.309-1.219h5.744
			v-3.763c0-0.672,0.587-1.217,1.311-1.217h6.207c0.723,0,1.31,0.545,1.31,1.217v8.409h14.396c0.725,0,1.312,0.544,1.312,1.217
			v2.884c0,0.323-0.139,0.633-0.384,0.861l-3.104,2.884c-0.246,0.228-0.579,0.356-0.927,0.356h-11.292v7.165h2.311
			c0.348,0,0.68,0.128,0.927,0.356l3.104,2.884c0.246,0.228,0.384,0.538,0.384,0.861v2.884
			C375.056,175.547,374.469,176.092,373.746,176.092z M355.399,173.657h17.036v-1.163l-2.336-2.17h-3.079
			c-0.724,0-1.311-0.545-1.311-1.217v-9.6c0-0.672,0.587-1.217,1.311-1.217h12.061l2.334-2.171v-1.162h-14.396
			c-0.724,0-1.311-0.546-1.311-1.218v-8.409h-3.586v3.764c0,0.672-0.587,1.217-1.31,1.217h-5.743v7.161
			c0,0.673-0.587,1.218-1.312,1.218h-6.448v0.448h8.242v-7.162c0-0.672,0.586-1.217,1.311-1.217h3.95c0.723,0,1.31,0.545,1.31,1.217
			v17.13c0,0.672-0.587,1.217-1.31,1.217h-3.078l-2.336,2.17L355.399,173.657L355.399,173.657z"/>
	</g>
	<path fill="#FCFCFC" d="M617.017,314.191c-1.974,0-3.827-0.714-5.222-2.012l-18.958-17.613c-0.479-0.448-0.479-1.174,0-1.621
		l9.606-8.928c0.24-0.223,0.559-0.349,0.899-0.334c0.338,0.006,0.656,0.142,0.886,0.373l18.053,18.453
		c2.836,2.639,2.836,6.993-0.038,9.67C620.845,313.479,618.99,314.191,617.017,314.191z M595.45,293.756l18.085,16.809
		c0.929,0.86,2.167,1.339,3.48,1.339c1.315,0,2.553-0.479,3.481-1.339c1.917-1.786,1.917-4.688,0-6.474l-17.223-17.604
		L595.45,293.756z M636.6,295.992c-1.945,0-3.775-0.695-5.164-1.957l-56.139-40.125l-27.816,1.986
		c-0.222,0.016-0.445-0.026-0.646-0.119l-7.868-3.654l-1.529,1.423c-0.48,0.444-1.262,0.444-1.74,0l-2.178-2.022
		c-0.48-0.447-0.48-1.172,0-1.621l21.76-20.219c0.463-0.429,1.278-0.429,1.742,0l1.763,1.637l23.304-1.969
		c0.363-0.028,0.725,0.092,0.984,0.332l58.75,54.596c1.396,1.294,2.167,3.017,2.167,4.851s-0.771,3.558-2.167,4.853
		C640.428,295.277,638.575,295.992,636.6,295.992L636.6,295.992z M575.672,251.59c0.271,0,0.536,0.084,0.751,0.237l56.575,40.438
		c0.043,0.028,0.083,0.063,0.119,0.098c0.933,0.863,2.167,1.34,3.481,1.342l0,0c1.316-0.002,2.552-0.479,3.479-1.342
		c0.932-0.865,1.443-2.012,1.443-3.233c0-1.221-0.513-2.368-1.441-3.231c-0.002,0-0.002,0-0.002,0l-58.343-54.217l-23.306,1.969
		c-0.361,0.026-0.724-0.09-0.981-0.33l-1.3-1.207l-20.019,18.6l0.435,0.404l1.286-1.195c0.376-0.35,0.946-0.434,1.423-0.214
		l8.356,3.882l27.947-1.994C575.61,251.592,575.642,251.59,575.672,251.59z M586.555,295.154c-1.15,0-2.231-0.418-3.048-1.176
		c-1.679-1.559-1.679-4.1,0.002-5.66l13.055-12.131c1.679-1.561,4.413-1.563,6.095-0.002l0,0c0.813,0.754,1.262,1.758,1.262,2.828
		c0.002,1.07-0.447,2.075-1.262,2.834l-13.057,12.131C588.787,294.736,587.705,295.154,586.555,295.154z M599.609,277.305
		c-0.475,0-0.945,0.168-1.307,0.502l-13.054,12.131c-0.719,0.668-0.719,1.756,0,2.426c0.697,0.646,1.911,0.648,2.61-0.002
		l13.056-12.133c0.349-0.324,0.541-0.754,0.541-1.213c0-0.455-0.192-0.886-0.541-1.209l0,0
		C600.555,277.473,600.084,277.305,599.609,277.305z M582.202,288.247c-0.282,0-0.563-0.089-0.794-0.271l-28.29-22.238
		c-0.277-0.217-0.438-0.538-0.438-0.873v-6.881c0-0.6,0.495-1.096,1.14-1.143l16.915-1.209l4.086-0.004
		c0.271,0,0.535,0.086,0.751,0.238l12.955,9.261c0.085,0.06,0.156,0.128,0.222,0.205l7.482,8.938
		c0.381,0.457,0.339,1.104-0.103,1.514l-13.055,12.126C582.834,288.135,582.519,288.247,582.202,288.247z M555.145,264.334
		l26.989,21.214l11.484-10.667l-6.718-8.025l-12.498-8.934h-3.573l-15.685,1.121V264.334L555.145,264.334z M527.799,245.793
		L527.799,245.793c-0.326,0-0.639-0.121-0.87-0.336l-2.176-2.023c-0.481-0.445-0.481-1.172,0-1.617l1.415-1.315
		c-4.499-5.696-1.735-14.562,7.29-22.951c8.878-8.245,21.372-10.062,27.854-4.045l14.119,13.125c0.338,0.313,0.45,0.781,0.288,1.2
		c-0.162,0.417-0.57,0.708-1.047,0.749l-15.958,1.348c-0.366,0.026-0.726-0.091-0.984-0.331l-6.46-6.004l-0.793,0.067
		c0.203,0.211,0.316,0.481,0.316,0.767c0,0.303-0.13,0.594-0.361,0.809l-21.763,20.225
		C528.44,245.672,528.128,245.793,527.799,245.793z M527.366,242.624l0.433,0.403l20.021-18.604l-0.944-0.877
		c-0.338-0.313-0.45-0.779-0.287-1.199c0.163-0.418,0.571-0.711,1.047-0.75l3.989-0.334c0.359-0.027,0.723,0.09,0.98,0.33
		l6.462,6.002l12.764-1.078l-12.26-11.395c-5.521-5.124-16.454-3.311-24.371,4.046c-6.438,5.983-11.994,14.979-6.461,20.638
		c0.441,0.451,0.425,1.148-0.04,1.58L527.366,242.624z"/>
	<g>
		<path fill="#FCFCFC" d="M596.719,91.258v-7.249c0-8.225-7.201-14.917-16.053-14.917c-8.854,0-16.054,6.692-16.054,14.917v7.249
			c-19.338,6.203-33.271,23.275-33.271,43.327c0,19.46,13.275,36.851,33.031,43.272c0.267,0.086,0.538,0.128,0.806,0.128
			c1.008,0,1.95-0.585,2.302-1.518c0.444-1.181-0.226-2.475-1.495-2.888c-17.805-5.788-29.766-21.459-29.766-38.995
			c0-17.515,11.799-32.508,28.395-38.503c1.586-0.573,3.21-1.072,4.878-1.476c3.572-0.862,7.315-1.323,11.176-1.323
			c3.858,0,7.604,0.461,11.177,1.324c1.666,0.403,3.291,0.902,4.876,1.475c16.596,5.996,28.394,20.988,28.394,38.503
			c0,17.232-11.684,32.812-29.079,38.766c-1.262,0.432-1.91,1.736-1.445,2.909c0.466,1.174,1.871,1.777,3.132,1.345
			c19.304-6.608,32.272-23.898,32.272-43.02C629.991,114.534,616.055,97.461,596.719,91.258z M591.843,89.954
			c-3.595-0.777-7.333-1.202-11.177-1.202c-3.845,0-7.583,0.424-11.176,1.202v-5.945c0-5.725,5.013-10.385,11.176-10.385
			c6.161,0,11.177,4.66,11.177,10.385V89.954z"/>
		<path fill="#FCFCFC" d="M621.51,134.473c0-14.053-8.27-26.336-20.517-32.897c-0.036-0.042-0.07-0.085-0.117-0.119
			c-0.086-0.057-0.183-0.083-0.278-0.094c-1.255-0.654-2.547-1.252-3.879-1.784c-1.576-0.628-3.206-1.16-4.876-1.603
			c-3.332-0.882-6.837-1.38-10.454-1.439c-0.11-0.117-0.27-0.195-0.453-0.195c-0.175,0-0.332,0.071-0.441,0.182
			c-3.814,0.015-7.502,0.525-11.003,1.452c-1.671,0.441-3.302,0.974-4.878,1.602c-1.158,0.463-2.292,0.971-3.395,1.527
			c-0.084,0.008-0.164,0.03-0.241,0.072c-0.075,0.04-0.138,0.095-0.187,0.156c-12.497,6.497-20.969,18.914-20.969,33.14
			c0,20.925,18.32,37.952,40.844,37.952C603.188,172.425,621.51,155.398,621.51,134.473z M619.07,134.473
			c0,6.03-1.624,11.713-4.479,16.699l-4.183-2.79c-0.021-0.012-0.045-0.016-0.064-0.027c1.001-0.303,1.854-1.001,2.271-1.983
			c1.731-4.098,2.47-8.399,2.314-12.643l4.132,0.382C619.063,134.232,619.07,134.352,619.07,134.473z M619.027,132.97l-4.159-0.383
			c-0.386-5.139-2.094-10.153-5.021-14.576c0.063-0.006,0.126-0.013,0.186-0.037l3.731-1.568
			C616.872,121.303,618.76,126.944,619.027,132.97z M561.694,103.464l1.789,2.879c0.112,0.182,0.317,0.284,0.528,0.284
			c0.104,0,0.207-0.025,0.305-0.077c0.292-0.156,0.391-0.501,0.224-0.773l-1.779-2.861c0.608-0.3,1.227-0.582,1.853-0.851
			c1.572-0.674,3.198-1.258,4.878-1.733c3.435-0.974,7.071-1.508,10.837-1.538v3.187c0,0.313,0.271,0.566,0.607,0.566
			c0.338,0,0.61-0.253,0.61-0.566v-3.174c3.571,0.076,7.026,0.599,10.297,1.526c1.677,0.475,3.304,1.059,4.876,1.733
			c0.733,0.314,1.458,0.644,2.164,0.999l-2.058,2.666c-0.198,0.255-0.134,0.608,0.14,0.791c0.107,0.072,0.23,0.106,0.354,0.106
			c0.189,0,0.378-0.082,0.497-0.235l2.133-2.761c5.343,2.895,9.867,6.953,13.172,11.801l-3.591,1.508
			c-0.118,0.052-0.203,0.139-0.265,0.237c-1.649-2.327-3.622-4.486-5.938-6.383c-2.063-1.689-4.312-3.079-6.666-4.226
			c-1.562-0.762-3.171-1.406-4.819-1.929c-7.229-2.288-15.129-2.288-22.353,0.03c-1.65,0.529-3.256,1.194-4.817,1.963
			c-2.192,1.08-4.296,2.369-6.239,3.924c-2.479,1.984-4.577,4.262-6.311,6.726c-0.044-0.129-0.134-0.244-0.27-0.316l-3.434-1.842
			C551.771,110.319,556.328,106.309,561.694,103.464z M547.767,116.081l3.479,1.866c0.096,0.053,0.202,0.077,0.305,0.077
			c0.02,0,0.034-0.012,0.054-0.013c-2.921,4.411-4.617,9.412-5.006,14.539h-4.278C542.662,126.55,544.608,120.94,547.767,116.081z
			 M542.261,134.473c0-0.266,0.017-0.527,0.021-0.791h4.246c-0.157,4.206,0.564,8.472,2.267,12.55
			c0.44,1.059,1.396,1.787,2.492,2.054c-0.106-0.002-0.214,0.013-0.313,0.066l-4.468,2.398
			C543.799,145.865,542.261,140.335,542.261,134.473z M600.632,164.946c-0.008-0.037-0.01-0.074-0.026-0.111l-2.26-4.645
			c-0.141-0.286-0.5-0.407-0.808-0.283c-0.309,0.129-0.443,0.464-0.305,0.75l2.259,4.645c0.036,0.074,0.101,0.121,0.162,0.171
			c-5.547,2.945-11.951,4.646-18.775,4.681c0.073-0.093,0.125-0.202,0.125-0.326v-7.082c0-0.313-0.271-0.567-0.609-0.567
			c-0.337,0-0.608,0.253-0.608,0.567v7.082c0,0.118,0.049,0.223,0.115,0.314c-6.811-0.125-13.189-1.901-18.693-4.92
			c0.048-0.039,0.1-0.069,0.133-0.121l2.73-4.394c0.168-0.271,0.068-0.618-0.225-0.773c-0.292-0.158-0.665-0.065-0.833,0.206
			l-2.729,4.393c-0.026,0.044-0.036,0.09-0.049,0.137c-5.469-3.206-10.01-7.654-13.158-12.919l4.506-2.417
			c0.292-0.156,0.392-0.503,0.223-0.773c-0.065-0.108-0.171-0.178-0.284-0.226c0.65,0.117,1.342,0.079,2.005-0.161
			c1.884-0.678,2.818-2.646,2.089-4.397c-4.114-9.864-1.063-21.145,7.593-28.068c1.178-0.943,2.43-1.763,3.729-2.484
			c1.418-0.786,2.896-1.441,4.416-1.964c6.003-2.062,12.647-2.074,18.653-0.04c1.525,0.517,3.009,1.162,4.432,1.942
			c1.42,0.78,2.781,1.689,4.057,2.733c8.507,6.965,11.446,18.213,7.313,27.992c-0.74,1.747,0.188,3.719,2.066,4.405
			c0.438,0.161,0.891,0.237,1.336,0.237c0.12,0,0.237-0.015,0.358-0.025c-0.003,0.004-0.009,0.006-0.011,0.009
			c-0.195,0.254-0.134,0.608,0.139,0.791l4.3,2.867C610.766,157.399,606.161,161.806,600.632,164.946z"/>
		<path fill="#FCFCFC" d="M600.827,124.045c-0.78-0.069-1.854-0.094-3.064,0.013c-2.432,0.198-10.674,3.67-11.805,4.495
			c-0.783,0.57-1.491,1.172-2.119,1.772c-0.896-0.594-1.988-0.952-3.173-0.952c-3.03,0-5.486,2.283-5.486,5.099
			s2.456,5.098,5.486,5.098s5.486-2.282,5.486-5.098c0-0.006-0.003-0.013-0.003-0.019c0.895-0.127,1.819-0.296,2.775-0.56
			c1.377-0.379,9.197-4.607,10.782-6.334c0.793-0.856,1.396-1.683,1.787-2.313c0.206-0.295,0.337-0.582,0.44-0.754
			c0.097-0.188,0.146-0.289,0.146-0.289s-0.119-0.02-0.338-0.058C601.534,124.125,601.205,124.059,600.827,124.045z"/>
		<ellipse fill="#FCFCFC" cx="571.043" cy="154.319" rx="4.293" ry="3.989"/>
		<ellipse fill="#FCFCFC" cx="589.332" cy="154.319" rx="4.292" ry="3.989"/>
		<ellipse fill="#FCFCFC" cx="580.666" cy="81.575" rx="3.354" ry="3.114"/>
	</g>
</g>
</svg>
