<?xml version="1.0" standalone="no"?>
<!DOCTYPE svg PUBLIC "-//W3C//DTD SVG 20010904//EN"
 "http://www.w3.org/TR/2001/REC-SVG-20010904/DTD/svg10.dtd">
<svg version="1.0" xmlns="http://www.w3.org/2000/svg"
 width="2768.000000pt" height="907.000000pt" viewBox="0 0 2768.000000 907.000000"
 preserveAspectRatio="xMidYMid meet">

<g transform="translate(0.000000,907.000000) scale(0.100000,-0.100000)"
fill="#000000" stroke="none">
<path d="M12464 9060 c-104 -21 -194 -94 -243 -199 l-26 -56 0 -2805 0 -2805
26 -56 c37 -79 90 -133 167 -171 l67 -33 1745 0 1745 0 62 29 c73 33 144 103
176 174 22 46 22 56 22 492 l0 445 -28 57 c-34 69 -118 149 -184 174 -46 18
-105 19 -1195 22 l-1148 2 -2 2233 -3 2232 -23 56 c-43 106 -128 179 -241 205
-64 15 -844 18 -917 4z"/>
<path d="M17571 9060 c-117 -24 -217 -115 -251 -228 -20 -67 -20 -82 -18
-2857 l3 -2790 22 -47 c32 -71 103 -141 176 -174 l62 -29 1745 0 1745 0 67 33
c77 38 130 92 167 171 l26 56 0 435 0 435 -26 56 c-37 79 -90 133 -167 171
l-67 33 -1152 3 -1153 3 -2 2247 -3 2247 -24 49 c-35 70 -109 140 -178 168
-57 23 -63 23 -493 25 -239 1 -455 -3 -479 -7z"/>
<path d="M8309 9037 c-119 -43 -243 -146 -304 -251 -13 -23 -98 -228 -190
-456 -92 -228 -225 -557 -295 -730 -70 -173 -207 -513 -305 -755 -98 -242
-231 -570 -295 -730 -168 -416 -393 -972 -505 -1250 -53 -132 -139 -343 -190
-470 -51 -126 -146 -360 -210 -520 -65 -159 -148 -366 -186 -459 -82 -204 -95
-258 -79 -327 15 -60 48 -102 104 -132 40 -22 49 -22 480 -25 288 -2 457 1
491 8 127 26 281 135 354 249 17 26 99 216 182 422 83 206 218 541 301 744 82
204 245 609 363 900 169 418 403 997 465 1150 10 24 -15 79 205 -465 92 -228
221 -545 285 -705 176 -436 653 -1616 733 -1815 38 -96 90 -206 114 -243 74
-111 197 -198 332 -233 51 -13 130 -14 503 -12 436 3 444 3 485 25 78 42 109
106 100 212 -4 54 -25 116 -115 336 -60 149 -171 423 -247 610 -75 187 -222
549 -325 805 -103 256 -236 584 -295 730 -59 146 -192 474 -295 730 -103 256
-241 596 -305 755 -64 160 -154 382 -200 495 -46 113 -144 356 -218 540 -224
554 -233 577 -262 627 -47 81 -143 166 -241 215 l-87 43 -141 3 c-127 2 -147
0 -207 -21z"/>
<path d="M24760 9046 c-109 -31 -225 -111 -294 -206 -43 -58 -70 -118 -194
-425 -33 -82 -114 -283 -180 -445 -66 -162 -199 -493 -297 -735 -97 -242 -235
-582 -305 -755 -70 -173 -179 -443 -242 -600 -603 -1493 -669 -1655 -888
-2195 -156 -384 -183 -460 -187 -516 -9 -106 22 -170 100 -212 41 -22 49 -22
485 -25 377 -3 452 -1 505 13 133 34 252 117 328 230 27 42 75 141 116 245 75
185 535 1326 733 1815 64 160 193 477 285 705 220 544 195 489 205 465 4 -11
37 -92 73 -180 87 -215 287 -710 467 -1155 81 -201 223 -552 315 -780 92 -228
225 -559 296 -734 71 -175 143 -341 160 -367 73 -114 227 -223 354 -249 34 -7
203 -10 491 -8 431 3 440 3 480 25 58 31 91 74 104 136 15 75 3 123 -101 377
-103 255 -239 592 -519 1285 -222 551 -369 913 -495 1225 -46 113 -136 336
-200 495 -64 160 -154 382 -200 495 -46 113 -226 558 -400 990 -174 432 -327
803 -340 826 -62 106 -186 209 -304 250 -56 20 -85 23 -186 23 -66 0 -140 -6
-165 -13z"/>
<path d="M279 9007 c-106 -30 -209 -122 -251 -225 l-23 -57 -3 -1097 -3 -1096
98 -7 c127 -10 915 1 1058 14 61 6 149 16 198 22 l87 12 -2 1091 -3 1091 -24
48 c-37 75 -104 142 -179 179 l-67 33 -420 2 c-312 2 -432 -1 -466 -10z"/>
<path d="M3280 5854 c-140 -108 -459 -285 -665 -369 -113 -46 -345 -126 -450
-154 -116 -32 -108 -27 -92 -53 8 -13 196 -327 417 -698 548 -918 794 -1329
853 -1428 59 -97 117 -154 195 -190 l57 -27 530 0 530 0 53 28 c69 36 132 99
162 162 31 65 40 192 17 260 -19 54 -23 61 -362 600 -141 226 -340 543 -442
705 -101 162 -269 430 -373 595 -103 165 -230 367 -281 448 -50 81 -95 149
-98 152 -4 2 -27 -12 -51 -31z"/>
<path d="M1280 5165 c-192 -24 -420 -35 -695 -35 -243 0 -501 12 -563 25 l-23
6 3 -988 3 -988 24 -59 c44 -111 146 -193 265 -215 80 -15 783 -15 861 0 112
21 204 89 252 188 l28 56 3 1013 2 1012 -27 -1 c-16 -1 -75 -7 -133 -14z"/>
</g>
</svg>
